%TF.GenerationSoftware,KiCad,Pcbnew,(5.1.10)-1*%
%TF.CreationDate,2021-06-06T16:07:06+07:00*%
%TF.ProjectId,Mother_module,4d6f7468-6572-45f6-9d6f-64756c652e6b,rev?*%
%TF.SameCoordinates,Original*%
%TF.FileFunction,Copper,L1,Top*%
%TF.FilePolarity,Positive*%
%FSLAX46Y46*%
G04 Gerber Fmt 4.6, Leading zero omitted, Abs format (unit mm)*
G04 Created by KiCad (PCBNEW (5.1.10)-1) date 2021-06-06 16:07:06*
%MOMM*%
%LPD*%
G01*
G04 APERTURE LIST*
%TA.AperFunction,ComponentPad*%
%ADD10C,1.900000*%
%TD*%
%TA.AperFunction,ComponentPad*%
%ADD11R,1.900000X1.900000*%
%TD*%
%TA.AperFunction,ComponentPad*%
%ADD12C,2.000000*%
%TD*%
%TA.AperFunction,ComponentPad*%
%ADD13R,1.700000X2.400000*%
%TD*%
%TA.AperFunction,ComponentPad*%
%ADD14O,1.700000X2.400000*%
%TD*%
%TA.AperFunction,ComponentPad*%
%ADD15C,1.700000*%
%TD*%
%TA.AperFunction,ComponentPad*%
%ADD16R,1.700000X1.700000*%
%TD*%
%TA.AperFunction,ComponentPad*%
%ADD17R,2.400000X1.700000*%
%TD*%
%TA.AperFunction,ComponentPad*%
%ADD18O,2.400000X1.700000*%
%TD*%
%TA.AperFunction,ComponentPad*%
%ADD19O,2.000000X2.400000*%
%TD*%
%TA.AperFunction,SMDPad,CuDef*%
%ADD20C,0.100000*%
%TD*%
%TA.AperFunction,ComponentPad*%
%ADD21C,1.600000*%
%TD*%
%TA.AperFunction,SMDPad,CuDef*%
%ADD22R,0.750000X2.100000*%
%TD*%
%TA.AperFunction,ViaPad*%
%ADD23C,1.000000*%
%TD*%
%TA.AperFunction,ViaPad*%
%ADD24C,1.200000*%
%TD*%
%TA.AperFunction,ViaPad*%
%ADD25C,0.800000*%
%TD*%
%TA.AperFunction,ViaPad*%
%ADD26C,1.800000*%
%TD*%
%TA.AperFunction,Conductor*%
%ADD27C,0.600000*%
%TD*%
%TA.AperFunction,Conductor*%
%ADD28C,2.000000*%
%TD*%
%TA.AperFunction,Conductor*%
%ADD29C,0.300000*%
%TD*%
%TA.AperFunction,Conductor*%
%ADD30C,1.400000*%
%TD*%
%TA.AperFunction,Conductor*%
%ADD31C,1.000000*%
%TD*%
%TA.AperFunction,Conductor*%
%ADD32C,0.254000*%
%TD*%
%TA.AperFunction,Conductor*%
%ADD33C,0.100000*%
%TD*%
G04 APERTURE END LIST*
D10*
%TO.P,XP2,2*%
%TO.N,Net-(F1-Pad1)*%
X61646000Y-84887000D03*
X69166000Y-84887000D03*
D11*
%TO.P,XP2,1*%
%TO.N,/N1*%
X61646000Y-79807000D03*
D10*
X69166000Y-79807000D03*
%TD*%
%TO.P,XP6,2*%
%TO.N,GND*%
X137492000Y-81458000D03*
X132512000Y-81458000D03*
D11*
%TO.P,XP6,1*%
%TO.N,+5VP*%
X137492000Y-83998000D03*
D10*
X132512000Y-83998000D03*
%TD*%
D12*
%TO.P,TP10,1*%
%TO.N,GND*%
X116510000Y-82220000D03*
%TD*%
%TO.P,TP9,1*%
%TO.N,+5VP*%
X106985000Y-84125000D03*
%TD*%
%TO.P,TP8,1*%
%TO.N,GND*%
X116510000Y-78410000D03*
%TD*%
%TO.P,TP7,1*%
%TO.N,+5VP*%
X104445000Y-81585000D03*
%TD*%
D13*
%TO.P,U6,1*%
%TO.N,/N1*%
X83744000Y-92697500D03*
D14*
%TO.P,U6,2*%
%TO.N,/L1*%
X88824000Y-92697500D03*
%TO.P,U6,3*%
%TO.N,Net-(JP1-Pad1)*%
X111684000Y-92697500D03*
%TO.P,U6,4*%
%TO.N,GND*%
X114224000Y-92697500D03*
%TD*%
D15*
%TO.P,U4,7*%
%TO.N,GND*%
X106860000Y-77470000D03*
D16*
%TO.P,U4,6*%
%TO.N,+5VP*%
X104320000Y-77470000D03*
D17*
%TO.P,U4,1*%
%TO.N,/N1*%
X75618000Y-77470000D03*
%TO.P,U4,2*%
%TO.N,Net-(F1-Pad2)*%
X80698000Y-77470000D03*
D18*
%TO.P,U4,3*%
%TO.N,/L1*%
X85778000Y-77470000D03*
D17*
%TO.P,U4,4*%
%TO.N,Net-(F2-Pad2)*%
X91620000Y-77470000D03*
D18*
%TO.P,U4,5*%
%TO.N,/L2*%
X96700000Y-77470000D03*
%TD*%
D13*
%TO.P,U5,1*%
%TO.N,/L1*%
X93904000Y-92697500D03*
D14*
%TO.P,U5,2*%
%TO.N,/N1*%
X98984000Y-92697500D03*
%TO.P,U5,3*%
%TO.N,Net-(JP1-Pad1)*%
X111684000Y-92697500D03*
%TO.P,U5,4*%
%TO.N,GND*%
X114224000Y-92697500D03*
%TD*%
D19*
%TO.P,U7,8*%
%TO.N,/L1_out2*%
X124336000Y-106553000D03*
%TO.P,U7,7*%
%TO.N,/L1*%
X118240000Y-106553000D03*
%TO.P,U7,6*%
%TO.N,/N1*%
X111890000Y-106553000D03*
D16*
%TO.P,U7,1*%
%TO.N,+5VP*%
X73790000Y-106553000D03*
D15*
%TO.P,U7,2*%
%TO.N,GND*%
X76330000Y-106553000D03*
D19*
%TO.P,U7,3*%
%TO.N,/N1*%
X92840000Y-106553000D03*
%TO.P,U7,4*%
%TO.N,/L1*%
X99190000Y-106553000D03*
%TO.P,U7,5*%
%TO.N,/L1_out1*%
X105540000Y-106553000D03*
%TD*%
D16*
%TO.P,U8,1*%
%TO.N,+5VP*%
X73790000Y-118999000D03*
D15*
%TO.P,U8,2*%
%TO.N,GND*%
X76330000Y-118999000D03*
D19*
%TO.P,U8,4*%
%TO.N,/L2*%
X90300000Y-118999000D03*
%TO.P,U8,3*%
%TO.N,/N2*%
X85220000Y-118999000D03*
%TO.P,U8,5*%
%TO.N,/L2_out*%
X127130000Y-118999000D03*
%TD*%
D12*
%TO.P,TP4,1*%
%TO.N,GND*%
X112700000Y-82220000D03*
%TD*%
%TO.P,TP3,1*%
%TO.N,GND*%
X112700000Y-78410000D03*
%TD*%
%TA.AperFunction,SMDPad,CuDef*%
D20*
%TO.P,JP1,1*%
%TO.N,Net-(JP1-Pad1)*%
G36*
X111049000Y-88205000D02*
G01*
X111799000Y-88705000D01*
X111799000Y-89705000D01*
X110299000Y-89705000D01*
X110299000Y-88705000D01*
X111049000Y-88205000D01*
G37*
%TD.AperFunction*%
%TA.AperFunction,SMDPad,CuDef*%
%TO.P,JP1,2*%
%TO.N,+5VP*%
G36*
X111799000Y-87255000D02*
G01*
X111799000Y-88405000D01*
X111049000Y-87905000D01*
X110299000Y-88405000D01*
X110299000Y-87255000D01*
X111799000Y-87255000D01*
G37*
%TD.AperFunction*%
%TD*%
D21*
%TO.P,RV1,2*%
%TO.N,/N1*%
X71482000Y-77982000D03*
%TO.P,RV1,1*%
%TO.N,Net-(F1-Pad2)*%
X73582000Y-82982000D03*
%TD*%
%TO.P,RV2,2*%
%TO.N,/N2*%
X72902000Y-99052000D03*
%TO.P,RV2,1*%
%TO.N,Net-(F2-Pad2)*%
X77902000Y-96952000D03*
%TD*%
%TO.P,F2,1*%
%TO.N,Net-(F2-Pad1)*%
X68193500Y-92634000D03*
%TO.P,F2,2*%
%TO.N,Net-(F2-Pad2)*%
X78353500Y-92634000D03*
%TO.P,F2,1*%
%TO.N,Net-(F2-Pad1)*%
X63113500Y-92634000D03*
%TO.P,F2,2*%
%TO.N,Net-(F2-Pad2)*%
X73273500Y-92634000D03*
%TD*%
D10*
%TO.P,XP3,2*%
%TO.N,/N2*%
X61639500Y-100000000D03*
X69159500Y-100000000D03*
D11*
%TO.P,XP3,1*%
%TO.N,Net-(F2-Pad1)*%
X61639500Y-94920000D03*
D10*
X69159500Y-94920000D03*
%TD*%
D12*
%TO.P,TP16,1*%
%TO.N,Net-(TP16-Pad1)*%
X115748000Y-134798000D03*
%TD*%
%TO.P,TP15,1*%
%TO.N,Net-(TP15-Pad1)*%
X110160000Y-131496000D03*
%TD*%
%TO.P,TP12,1*%
%TO.N,Net-(TP12-Pad1)*%
X113208000Y-131496000D03*
%TD*%
%TO.P,TP11,1*%
%TO.N,Net-(TP11-Pad1)*%
X115748000Y-137846000D03*
%TD*%
%TO.P,TP14,1*%
%TO.N,Net-(TP14-Pad1)*%
X102032000Y-133020000D03*
%TD*%
%TO.P,TP13,1*%
%TO.N,Net-(TP13-Pad1)*%
X102032000Y-136068000D03*
%TD*%
D10*
%TO.P,XP1,12*%
%TO.N,Net-(U3-Pad7)*%
X67501500Y-134671000D03*
X62521500Y-134671000D03*
%TO.P,XP1,11*%
%TO.N,GND*%
X62521500Y-132131000D03*
X67501500Y-132131000D03*
%TO.P,XP1,10*%
%TO.N,Net-(U3-Pad9)*%
X67501500Y-129591000D03*
X62521500Y-129591000D03*
%TO.P,XP1,9*%
%TO.N,GND*%
X67501500Y-127051000D03*
X62521500Y-127051000D03*
%TO.P,XP1,8*%
%TO.N,Net-(U3-Pad11)*%
X62521500Y-124511000D03*
X67501500Y-124511000D03*
%TO.P,XP1,7*%
%TO.N,GND*%
X62521500Y-121971000D03*
X67501500Y-121971000D03*
%TO.P,XP1,6*%
%TO.N,+5VA*%
X62521500Y-119431000D03*
X67501500Y-119431000D03*
%TO.P,XP1,5*%
%TO.N,GND*%
X62521500Y-116891000D03*
X67501500Y-116891000D03*
%TO.P,XP1,4*%
%TO.N,Net-(U3-Pad19)*%
X62521500Y-114351000D03*
X67501500Y-114351000D03*
%TO.P,XP1,3*%
%TO.N,Net-(U3-Pad21)*%
X62521500Y-111811000D03*
X67501500Y-111811000D03*
%TO.P,XP1,2*%
%TO.N,GND*%
X62521500Y-109271000D03*
X67501500Y-109271000D03*
D11*
%TO.P,XP1,1*%
%TO.N,+5VP*%
X62521500Y-106731000D03*
D10*
X67501500Y-106731000D03*
%TD*%
D12*
%TO.P,TP2,1*%
%TO.N,GND*%
X92888000Y-136068000D03*
%TD*%
D10*
%TO.P,XP4,7*%
%TO.N,GND*%
X137528500Y-122860000D03*
X132548500Y-122860000D03*
%TO.P,XP4,6*%
%TO.N,Net-(U3-Pad26)*%
X137528500Y-125400000D03*
X132548500Y-125400000D03*
%TO.P,XP4,5*%
%TO.N,Net-(U3-Pad29)*%
X137528500Y-127940000D03*
X132548500Y-127940000D03*
%TO.P,XP4,4*%
%TO.N,Net-(U3-Pad28)*%
X137528500Y-130480000D03*
X132548500Y-130480000D03*
%TO.P,XP4,3*%
%TO.N,/SDA2*%
X137528500Y-133020000D03*
X132548500Y-133020000D03*
%TO.P,XP4,2*%
%TO.N,/SCL2*%
X137528500Y-135560000D03*
X132548500Y-135560000D03*
D11*
%TO.P,XP4,1*%
%TO.N,GND*%
X137528500Y-138100000D03*
D10*
X132548500Y-138100000D03*
%TD*%
D12*
%TO.P,TP1,1*%
%TO.N,Net-(TP1-Pad1)*%
X92888000Y-133020000D03*
%TD*%
D22*
%TO.P,U3,32*%
%TO.N,Net-(TP11-Pad1)*%
X110922000Y-137842000D03*
%TO.P,U3,33*%
%TO.N,Net-(TP12-Pad1)*%
X110922000Y-134242000D03*
%TO.P,U3,30*%
%TO.N,Net-(TP16-Pad1)*%
X109652000Y-137842000D03*
%TO.P,U3,31*%
%TO.N,Net-(TP15-Pad1)*%
X109652000Y-134242000D03*
%TO.P,U3,28*%
%TO.N,Net-(U3-Pad28)*%
X108382000Y-137842000D03*
%TO.P,U3,29*%
%TO.N,Net-(U3-Pad29)*%
X108382000Y-134242000D03*
%TO.P,U3,26*%
%TO.N,Net-(U3-Pad26)*%
X107112000Y-137842000D03*
%TO.P,U3,27*%
X107112000Y-134242000D03*
%TO.P,U3,24*%
%TO.N,GND*%
X105842000Y-137842000D03*
%TO.P,U3,25*%
X105842000Y-134242000D03*
%TO.P,U3,22*%
%TO.N,Net-(TP13-Pad1)*%
X100000000Y-137842000D03*
%TO.P,U3,23*%
%TO.N,Net-(TP14-Pad1)*%
X100000000Y-134242000D03*
%TO.P,U3,20*%
%TO.N,/SDA2*%
X98730000Y-137842000D03*
%TO.P,U3,21*%
%TO.N,Net-(U3-Pad21)*%
X98730000Y-134242000D03*
%TO.P,U3,18*%
%TO.N,/SCL2*%
X97460000Y-137842000D03*
%TO.P,U3,19*%
%TO.N,Net-(U3-Pad19)*%
X97460000Y-134242000D03*
%TO.P,U3,16*%
%TO.N,+5VA*%
X96190000Y-137842000D03*
%TO.P,U3,17*%
X96190000Y-134242000D03*
%TO.P,U3,14*%
%TO.N,GND*%
X94920000Y-137842000D03*
%TO.P,U3,15*%
X94920000Y-134242000D03*
%TO.P,U3,12*%
X90856000Y-137842000D03*
%TO.P,U3,13*%
%TO.N,Net-(TP1-Pad1)*%
X90856000Y-134242000D03*
%TO.P,U3,10*%
%TO.N,GND*%
X89586000Y-137842000D03*
%TO.P,U3,11*%
%TO.N,Net-(U3-Pad11)*%
X89586000Y-134242000D03*
%TO.P,U3,8*%
%TO.N,GND*%
X88316000Y-137842000D03*
%TO.P,U3,9*%
%TO.N,Net-(U3-Pad9)*%
X88316000Y-134242000D03*
%TO.P,U3,6*%
%TO.N,GND*%
X87046000Y-137842000D03*
%TO.P,U3,7*%
%TO.N,Net-(U3-Pad7)*%
X87046000Y-134242000D03*
%TO.P,U3,4*%
%TO.N,GND*%
X85776000Y-137842000D03*
%TO.P,U3,5*%
X85776000Y-134242000D03*
D15*
%TO.P,U3,3*%
%TO.N,+5VA*%
X78870000Y-136212000D03*
%TO.P,U3,2*%
%TO.N,+5VP*%
X76330000Y-136212000D03*
D16*
%TO.P,U3,1*%
%TO.N,GND*%
X73790000Y-136212000D03*
%TD*%
D10*
%TO.P,XP5,6*%
%TO.N,/L1_out1*%
X138417500Y-90729000D03*
X130897500Y-90729000D03*
%TO.P,XP5,5*%
%TO.N,/N1*%
X138417500Y-95809000D03*
X130897500Y-95809000D03*
%TO.P,XP5,4*%
X138417500Y-100889000D03*
X130897500Y-100889000D03*
%TO.P,XP5,3*%
%TO.N,/L1_out2*%
X138417500Y-105969000D03*
X130897500Y-105969000D03*
%TO.P,XP5,2*%
%TO.N,/N2*%
X138417500Y-111049000D03*
X130897500Y-111049000D03*
D11*
%TO.P,XP5,1*%
%TO.N,/L2_out*%
X138417500Y-116129000D03*
D10*
X130897500Y-116129000D03*
%TD*%
D12*
%TO.P,TP6,1*%
%TO.N,GND*%
X76378000Y-113208000D03*
%TD*%
%TO.P,TP5,1*%
%TO.N,+5VP*%
X73838000Y-110414000D03*
%TD*%
D21*
%TO.P,F1,1*%
%TO.N,Net-(F1-Pad1)*%
X68193500Y-87046000D03*
%TO.P,F1,2*%
%TO.N,Net-(F1-Pad2)*%
X78353500Y-87046000D03*
%TO.P,F1,1*%
%TO.N,Net-(F1-Pad1)*%
X63113500Y-87046000D03*
%TO.P,F1,2*%
%TO.N,Net-(F1-Pad2)*%
X73273500Y-87046000D03*
%TD*%
D23*
%TO.N,GND*%
X90856000Y-139370000D03*
X89586000Y-139370000D03*
X88316000Y-139370000D03*
X87046000Y-139370000D03*
D24*
X105842000Y-136068000D03*
X94920000Y-136068000D03*
D25*
X85776000Y-136068000D03*
D26*
%TO.N,/N1*%
X102286000Y-102032004D03*
%TO.N,/L2*%
X104445000Y-93014964D03*
D25*
%TO.N,Net-(U3-Pad11)*%
X89586000Y-132575500D03*
%TO.N,Net-(U3-Pad9)*%
X88316000Y-132575500D03*
%TO.N,Net-(U3-Pad21)*%
X98730000Y-132575500D03*
%TO.N,Net-(U3-Pad19)*%
X97460000Y-132575500D03*
%TO.N,Net-(U3-Pad7)*%
X87046000Y-132627010D03*
D23*
%TO.N,+5VA*%
X78885501Y-130511001D03*
D24*
X96190000Y-132575500D03*
%TD*%
D27*
%TO.N,GND*%
X105842000Y-134242000D02*
X105842000Y-136068000D01*
X88316000Y-137842000D02*
X88316000Y-139370000D01*
X90856000Y-137842000D02*
X90856000Y-139370000D01*
X89586000Y-137842000D02*
X89586000Y-139370000D01*
X87046000Y-137842000D02*
X87046000Y-139370000D01*
X105842000Y-136068000D02*
X105842000Y-137842000D01*
X94920000Y-136068000D02*
X94920000Y-137842000D01*
X85776000Y-136068000D02*
X85776000Y-137842000D01*
X85776000Y-134242000D02*
X85776000Y-136068000D01*
X94920000Y-134242000D02*
X94920000Y-136068000D01*
D28*
%TO.N,+5VP*%
X67679500Y-106553000D02*
X67501500Y-106731000D01*
X73790000Y-118999000D02*
X73790000Y-112748000D01*
X62521500Y-106731000D02*
X67501500Y-106731000D01*
X73790000Y-106553000D02*
X73790000Y-112652000D01*
X73790000Y-112652000D02*
X73838000Y-112700000D01*
X73838000Y-106601000D02*
X73790000Y-106553000D01*
X76330000Y-129797000D02*
X73790000Y-127257000D01*
X132512000Y-83998000D02*
X122098000Y-83998000D01*
X137492000Y-83998000D02*
X132512000Y-83998000D01*
X122098000Y-83998000D02*
X120955000Y-85141000D01*
X73790000Y-106553000D02*
X67679500Y-106553000D01*
X108001000Y-85141000D02*
X106985000Y-84125000D01*
D29*
X111049000Y-87755000D02*
X111049000Y-87173000D01*
D28*
X120955000Y-85141000D02*
X111049000Y-85141000D01*
D30*
X111049000Y-85141000D02*
X111049000Y-87173000D01*
D28*
X111049000Y-85141000D02*
X108001000Y-85141000D01*
X76330000Y-136212000D02*
X76330000Y-129797000D01*
X73790000Y-127257000D02*
X73790000Y-118999000D01*
X73790000Y-112748000D02*
X73838000Y-112700000D01*
%TO.N,/N1*%
X96443996Y-102032004D02*
X102286000Y-102032004D01*
X92840000Y-105636000D02*
X96443996Y-102032004D01*
X83744000Y-87173000D02*
X75618000Y-79047000D01*
X75618000Y-79047000D02*
X75618000Y-77470000D01*
X83744000Y-92697500D02*
X83744000Y-87173000D01*
X92840000Y-106553000D02*
X92840000Y-105636000D01*
X111890000Y-102080000D02*
X111937996Y-102032004D01*
X111890000Y-106553000D02*
X111890000Y-102080000D01*
X102286000Y-102032004D02*
X111937996Y-102032004D01*
X61646000Y-79807000D02*
X69166000Y-79807000D01*
X71994000Y-77470000D02*
X71482000Y-77982000D01*
X75618000Y-77470000D02*
X71994000Y-77470000D01*
X69657000Y-79807000D02*
X71482000Y-77982000D01*
X69166000Y-79807000D02*
X69657000Y-79807000D01*
X138417500Y-95809000D02*
X130897500Y-95809000D01*
X138417500Y-100889000D02*
X130897500Y-100889000D01*
X124674496Y-102032004D02*
X123748996Y-102032004D01*
X111937996Y-102032004D02*
X123748996Y-102032004D01*
X128375750Y-98367250D02*
X128339250Y-98367250D01*
X130897500Y-100889000D02*
X128375750Y-98367250D01*
X128339250Y-98367250D02*
X124674496Y-102032004D01*
X130897500Y-95809000D02*
X128339250Y-98367250D01*
%TO.N,/L1*%
X88824000Y-92697500D02*
X93904000Y-92697500D01*
X88824000Y-84125000D02*
X88824000Y-92697500D01*
X85778000Y-81079000D02*
X88824000Y-84125000D01*
X85778000Y-77470000D02*
X85778000Y-81079000D01*
%TO.N,/N2*%
X61639500Y-100000000D02*
X69159500Y-100000000D01*
X71954000Y-100000000D02*
X72902000Y-99052000D01*
X69159500Y-100000000D02*
X71954000Y-100000000D01*
X74485000Y-100635000D02*
X72902000Y-99052000D01*
X79807000Y-100635000D02*
X74485000Y-100635000D01*
X82855000Y-103683000D02*
X79807000Y-100635000D01*
X82855000Y-116634000D02*
X82855000Y-103683000D01*
X85220000Y-118999000D02*
X82855000Y-116634000D01*
%TO.N,/L2*%
X104445000Y-94666000D02*
X104445000Y-93014964D01*
X101905000Y-97206000D02*
X104445000Y-94666000D01*
X94031000Y-97206000D02*
X101905000Y-97206000D01*
X87808000Y-103429000D02*
X94031000Y-97206000D01*
X87808000Y-112700000D02*
X87808000Y-103429000D01*
X90300000Y-115192000D02*
X87808000Y-112700000D01*
X90300000Y-118999000D02*
X90300000Y-115192000D01*
%TO.N,/L2_out*%
X138417500Y-116129000D02*
X130897500Y-116129000D01*
X130000000Y-116129000D02*
X127130000Y-118999000D01*
X130897500Y-116129000D02*
X130000000Y-116129000D01*
D29*
%TO.N,Net-(U3-Pad11)*%
X89586000Y-132575500D02*
X89586000Y-134242000D01*
%TO.N,Net-(U3-Pad9)*%
X88316000Y-132575500D02*
X88316000Y-134242000D01*
D30*
%TO.N,Net-(JP1-Pad1)*%
X111684000Y-92697500D02*
X111684000Y-90348000D01*
X111049000Y-89713000D02*
X111049000Y-89205000D01*
X111684000Y-90348000D02*
X111049000Y-89713000D01*
D29*
%TO.N,Net-(TP1-Pad1)*%
X92078000Y-133020000D02*
X90856000Y-134242000D01*
X92888000Y-133020000D02*
X92078000Y-133020000D01*
%TO.N,Net-(U3-Pad21)*%
X98730000Y-132575500D02*
X98730000Y-134242000D01*
X67501500Y-111811000D02*
X62521500Y-111811000D01*
%TO.N,Net-(U3-Pad19)*%
X97460000Y-134242000D02*
X97460000Y-132575500D01*
%TO.N,Net-(U3-Pad7)*%
X87046000Y-134242000D02*
X87046000Y-132627010D01*
%TO.N,Net-(U3-Pad28)*%
X132548500Y-130480000D02*
X137528500Y-130480000D01*
X123658500Y-139370000D02*
X132548500Y-130480000D01*
X108890000Y-139370000D02*
X123658500Y-139370000D01*
X108382000Y-138862000D02*
X108890000Y-139370000D01*
X108382000Y-137842000D02*
X108382000Y-138862000D01*
%TO.N,Net-(U3-Pad29)*%
X132548500Y-127940000D02*
X137528500Y-127940000D01*
X130988000Y-127940000D02*
X132548500Y-127940000D01*
X129210000Y-129718000D02*
X130988000Y-127940000D01*
X109398000Y-129718000D02*
X129210000Y-129718000D01*
X108382000Y-130734000D02*
X109398000Y-129718000D01*
X108382000Y-134242000D02*
X108382000Y-130734000D01*
D27*
%TO.N,Net-(U3-Pad26)*%
X107112000Y-137842000D02*
X107112000Y-134242000D01*
X132548500Y-125400000D02*
X137528500Y-125400000D01*
X128992500Y-128956000D02*
X132548500Y-125400000D01*
X109144000Y-128956000D02*
X128992500Y-128956000D01*
X107112000Y-130988000D02*
X109144000Y-128956000D01*
X107112000Y-134242000D02*
X107112000Y-130988000D01*
%TO.N,+5VA*%
X96190000Y-134242000D02*
X96190000Y-137842000D01*
X96190000Y-134242000D02*
X96190000Y-132575500D01*
D31*
X78870000Y-130526502D02*
X78885501Y-130511001D01*
X78870000Y-136212000D02*
X78870000Y-130526502D01*
D29*
%TO.N,Net-(TP11-Pad1)*%
X114732000Y-136830000D02*
X115748000Y-137846000D01*
X111934000Y-136830000D02*
X114732000Y-136830000D01*
X110922000Y-137842000D02*
X111934000Y-136830000D01*
%TO.N,Net-(TP12-Pad1)*%
X112700000Y-131496000D02*
X113208000Y-131496000D01*
X110922000Y-133274000D02*
X112700000Y-131496000D01*
X110922000Y-134242000D02*
X110922000Y-133274000D01*
%TO.N,Net-(TP13-Pad1)*%
X101774000Y-136068000D02*
X100000000Y-137842000D01*
X102032000Y-136068000D02*
X101774000Y-136068000D01*
%TO.N,Net-(TP14-Pad1)*%
X101222000Y-133020000D02*
X100000000Y-134242000D01*
X102032000Y-133020000D02*
X101222000Y-133020000D01*
%TO.N,/SDA2*%
X137528500Y-133020000D02*
X132548500Y-133020000D01*
X132548500Y-133020000D02*
X130788878Y-133020000D01*
X130788878Y-133020000D02*
X123922889Y-139885989D01*
X123922889Y-139885989D02*
X99423989Y-139885989D01*
X99423989Y-139885989D02*
X98730000Y-139192000D01*
X98730000Y-139192000D02*
X98730000Y-137842000D01*
%TO.N,/SCL2*%
X137528500Y-135560000D02*
X132548500Y-135560000D01*
X97460000Y-139192000D02*
X97460000Y-137842000D01*
X98654000Y-140386000D02*
X97460000Y-139192000D01*
X124130000Y-140386000D02*
X98654000Y-140386000D01*
X128956000Y-135560000D02*
X124130000Y-140386000D01*
X132548500Y-135560000D02*
X128956000Y-135560000D01*
%TO.N,Net-(TP15-Pad1)*%
X109652000Y-132004000D02*
X110160000Y-131496000D01*
X109652000Y-134242000D02*
X109652000Y-132004000D01*
%TO.N,Net-(TP16-Pad1)*%
X115748000Y-135306000D02*
X115748000Y-134798000D01*
X110160000Y-136322000D02*
X114732000Y-136322000D01*
X114732000Y-136322000D02*
X115748000Y-135306000D01*
X109652000Y-136830000D02*
X110160000Y-136322000D01*
X109652000Y-137842000D02*
X109652000Y-136830000D01*
%TD*%
D32*
%TO.N,+5VP*%
X105461000Y-76176606D02*
X105461000Y-76374012D01*
X105440711Y-76349289D01*
X105382696Y-76301678D01*
X105316508Y-76266299D01*
X105244689Y-76244513D01*
X105170000Y-76237157D01*
X104672250Y-76239000D01*
X104577000Y-76334250D01*
X104577000Y-77213000D01*
X104597000Y-77213000D01*
X104597000Y-77727000D01*
X104577000Y-77727000D01*
X104577000Y-78605750D01*
X104672250Y-78701000D01*
X105170000Y-78702843D01*
X105244689Y-78695487D01*
X105316508Y-78673701D01*
X105382696Y-78638322D01*
X105440711Y-78590711D01*
X105461000Y-78565988D01*
X105461000Y-78664000D01*
X105463440Y-78688776D01*
X105470667Y-78712601D01*
X105482403Y-78734557D01*
X105498197Y-78753803D01*
X110959197Y-84214803D01*
X110978443Y-84230597D01*
X111000399Y-84242333D01*
X111024224Y-84249560D01*
X111049000Y-84252000D01*
X112827000Y-84252000D01*
X112827000Y-86102127D01*
X111824135Y-87046000D01*
X106656606Y-87046000D01*
X104812969Y-85202363D01*
X106271089Y-85202363D01*
X106391369Y-85379298D01*
X106647477Y-85471009D01*
X106916556Y-85510994D01*
X107188265Y-85497715D01*
X107452163Y-85431684D01*
X107578631Y-85379298D01*
X107698911Y-85202363D01*
X106985000Y-84488453D01*
X106271089Y-85202363D01*
X104812969Y-85202363D01*
X103667162Y-84056556D01*
X105599006Y-84056556D01*
X105612285Y-84328265D01*
X105678316Y-84592163D01*
X105730702Y-84718631D01*
X105907637Y-84838911D01*
X106621547Y-84125000D01*
X107348453Y-84125000D01*
X108062363Y-84838911D01*
X108239298Y-84718631D01*
X108331009Y-84462523D01*
X108370994Y-84193444D01*
X108357715Y-83921735D01*
X108291684Y-83657837D01*
X108239298Y-83531369D01*
X108062363Y-83411089D01*
X107348453Y-84125000D01*
X106621547Y-84125000D01*
X105907637Y-83411089D01*
X105730702Y-83531369D01*
X105638991Y-83787477D01*
X105599006Y-84056556D01*
X103667162Y-84056556D01*
X102658243Y-83047637D01*
X106271089Y-83047637D01*
X106985000Y-83761547D01*
X107698911Y-83047637D01*
X107578631Y-82870702D01*
X107322523Y-82778991D01*
X107053444Y-82739006D01*
X106781735Y-82752285D01*
X106517837Y-82818316D01*
X106391369Y-82870702D01*
X106271089Y-83047637D01*
X102658243Y-83047637D01*
X102272969Y-82662363D01*
X103731089Y-82662363D01*
X103851369Y-82839298D01*
X104107477Y-82931009D01*
X104376556Y-82970994D01*
X104648265Y-82957715D01*
X104912163Y-82891684D01*
X105038631Y-82839298D01*
X105158911Y-82662363D01*
X104445000Y-81948453D01*
X103731089Y-82662363D01*
X102272969Y-82662363D01*
X101905000Y-82294394D01*
X101905000Y-81516556D01*
X103059006Y-81516556D01*
X103072285Y-81788265D01*
X103138316Y-82052163D01*
X103190702Y-82178631D01*
X103367637Y-82298911D01*
X104081547Y-81585000D01*
X104808453Y-81585000D01*
X105522363Y-82298911D01*
X105699298Y-82178631D01*
X105791009Y-81922523D01*
X105830994Y-81653444D01*
X105817715Y-81381735D01*
X105751684Y-81117837D01*
X105699298Y-80991369D01*
X105522363Y-80871089D01*
X104808453Y-81585000D01*
X104081547Y-81585000D01*
X103367637Y-80871089D01*
X103190702Y-80991369D01*
X103098991Y-81247477D01*
X103059006Y-81516556D01*
X101905000Y-81516556D01*
X101905000Y-80507637D01*
X103731089Y-80507637D01*
X104445000Y-81221547D01*
X105158911Y-80507637D01*
X105038631Y-80330702D01*
X104782523Y-80238991D01*
X104513444Y-80199006D01*
X104241735Y-80212285D01*
X103977837Y-80278316D01*
X103851369Y-80330702D01*
X103731089Y-80507637D01*
X101905000Y-80507637D01*
X101905000Y-78320000D01*
X103087157Y-78320000D01*
X103094513Y-78394689D01*
X103116299Y-78466508D01*
X103151678Y-78532696D01*
X103199289Y-78590711D01*
X103257304Y-78638322D01*
X103323492Y-78673701D01*
X103395311Y-78695487D01*
X103470000Y-78702843D01*
X103967750Y-78701000D01*
X104063000Y-78605750D01*
X104063000Y-77727000D01*
X103184250Y-77727000D01*
X103089000Y-77822250D01*
X103087157Y-78320000D01*
X101905000Y-78320000D01*
X101905000Y-76620000D01*
X103087157Y-76620000D01*
X103089000Y-77117750D01*
X103184250Y-77213000D01*
X104063000Y-77213000D01*
X104063000Y-76334250D01*
X103967750Y-76239000D01*
X103470000Y-76237157D01*
X103395311Y-76244513D01*
X103323492Y-76266299D01*
X103257304Y-76301678D01*
X103199289Y-76349289D01*
X103151678Y-76407304D01*
X103116299Y-76473492D01*
X103094513Y-76545311D01*
X103087157Y-76620000D01*
X101905000Y-76620000D01*
X101905000Y-76176606D01*
X102592606Y-75489000D01*
X104773394Y-75489000D01*
X105461000Y-76176606D01*
%TA.AperFunction,Conductor*%
D33*
G36*
X105461000Y-76176606D02*
G01*
X105461000Y-76374012D01*
X105440711Y-76349289D01*
X105382696Y-76301678D01*
X105316508Y-76266299D01*
X105244689Y-76244513D01*
X105170000Y-76237157D01*
X104672250Y-76239000D01*
X104577000Y-76334250D01*
X104577000Y-77213000D01*
X104597000Y-77213000D01*
X104597000Y-77727000D01*
X104577000Y-77727000D01*
X104577000Y-78605750D01*
X104672250Y-78701000D01*
X105170000Y-78702843D01*
X105244689Y-78695487D01*
X105316508Y-78673701D01*
X105382696Y-78638322D01*
X105440711Y-78590711D01*
X105461000Y-78565988D01*
X105461000Y-78664000D01*
X105463440Y-78688776D01*
X105470667Y-78712601D01*
X105482403Y-78734557D01*
X105498197Y-78753803D01*
X110959197Y-84214803D01*
X110978443Y-84230597D01*
X111000399Y-84242333D01*
X111024224Y-84249560D01*
X111049000Y-84252000D01*
X112827000Y-84252000D01*
X112827000Y-86102127D01*
X111824135Y-87046000D01*
X106656606Y-87046000D01*
X104812969Y-85202363D01*
X106271089Y-85202363D01*
X106391369Y-85379298D01*
X106647477Y-85471009D01*
X106916556Y-85510994D01*
X107188265Y-85497715D01*
X107452163Y-85431684D01*
X107578631Y-85379298D01*
X107698911Y-85202363D01*
X106985000Y-84488453D01*
X106271089Y-85202363D01*
X104812969Y-85202363D01*
X103667162Y-84056556D01*
X105599006Y-84056556D01*
X105612285Y-84328265D01*
X105678316Y-84592163D01*
X105730702Y-84718631D01*
X105907637Y-84838911D01*
X106621547Y-84125000D01*
X107348453Y-84125000D01*
X108062363Y-84838911D01*
X108239298Y-84718631D01*
X108331009Y-84462523D01*
X108370994Y-84193444D01*
X108357715Y-83921735D01*
X108291684Y-83657837D01*
X108239298Y-83531369D01*
X108062363Y-83411089D01*
X107348453Y-84125000D01*
X106621547Y-84125000D01*
X105907637Y-83411089D01*
X105730702Y-83531369D01*
X105638991Y-83787477D01*
X105599006Y-84056556D01*
X103667162Y-84056556D01*
X102658243Y-83047637D01*
X106271089Y-83047637D01*
X106985000Y-83761547D01*
X107698911Y-83047637D01*
X107578631Y-82870702D01*
X107322523Y-82778991D01*
X107053444Y-82739006D01*
X106781735Y-82752285D01*
X106517837Y-82818316D01*
X106391369Y-82870702D01*
X106271089Y-83047637D01*
X102658243Y-83047637D01*
X102272969Y-82662363D01*
X103731089Y-82662363D01*
X103851369Y-82839298D01*
X104107477Y-82931009D01*
X104376556Y-82970994D01*
X104648265Y-82957715D01*
X104912163Y-82891684D01*
X105038631Y-82839298D01*
X105158911Y-82662363D01*
X104445000Y-81948453D01*
X103731089Y-82662363D01*
X102272969Y-82662363D01*
X101905000Y-82294394D01*
X101905000Y-81516556D01*
X103059006Y-81516556D01*
X103072285Y-81788265D01*
X103138316Y-82052163D01*
X103190702Y-82178631D01*
X103367637Y-82298911D01*
X104081547Y-81585000D01*
X104808453Y-81585000D01*
X105522363Y-82298911D01*
X105699298Y-82178631D01*
X105791009Y-81922523D01*
X105830994Y-81653444D01*
X105817715Y-81381735D01*
X105751684Y-81117837D01*
X105699298Y-80991369D01*
X105522363Y-80871089D01*
X104808453Y-81585000D01*
X104081547Y-81585000D01*
X103367637Y-80871089D01*
X103190702Y-80991369D01*
X103098991Y-81247477D01*
X103059006Y-81516556D01*
X101905000Y-81516556D01*
X101905000Y-80507637D01*
X103731089Y-80507637D01*
X104445000Y-81221547D01*
X105158911Y-80507637D01*
X105038631Y-80330702D01*
X104782523Y-80238991D01*
X104513444Y-80199006D01*
X104241735Y-80212285D01*
X103977837Y-80278316D01*
X103851369Y-80330702D01*
X103731089Y-80507637D01*
X101905000Y-80507637D01*
X101905000Y-78320000D01*
X103087157Y-78320000D01*
X103094513Y-78394689D01*
X103116299Y-78466508D01*
X103151678Y-78532696D01*
X103199289Y-78590711D01*
X103257304Y-78638322D01*
X103323492Y-78673701D01*
X103395311Y-78695487D01*
X103470000Y-78702843D01*
X103967750Y-78701000D01*
X104063000Y-78605750D01*
X104063000Y-77727000D01*
X103184250Y-77727000D01*
X103089000Y-77822250D01*
X103087157Y-78320000D01*
X101905000Y-78320000D01*
X101905000Y-76620000D01*
X103087157Y-76620000D01*
X103089000Y-77117750D01*
X103184250Y-77213000D01*
X104063000Y-77213000D01*
X104063000Y-76334250D01*
X103967750Y-76239000D01*
X103470000Y-76237157D01*
X103395311Y-76244513D01*
X103323492Y-76266299D01*
X103257304Y-76301678D01*
X103199289Y-76349289D01*
X103151678Y-76407304D01*
X103116299Y-76473492D01*
X103094513Y-76545311D01*
X103087157Y-76620000D01*
X101905000Y-76620000D01*
X101905000Y-76176606D01*
X102592606Y-75489000D01*
X104773394Y-75489000D01*
X105461000Y-76176606D01*
G37*
%TD.AperFunction*%
%TD*%
M02*
