%TF.GenerationSoftware,KiCad,Pcbnew,(5.1.10)-1*%
%TF.CreationDate,2021-06-06T16:07:07+07:00*%
%TF.ProjectId,Mother_module,4d6f7468-6572-45f6-9d6f-64756c652e6b,rev?*%
%TF.SameCoordinates,Original*%
%TF.FileFunction,Legend,Top*%
%TF.FilePolarity,Positive*%
%FSLAX46Y46*%
G04 Gerber Fmt 4.6, Leading zero omitted, Abs format (unit mm)*
G04 Created by KiCad (PCBNEW (5.1.10)-1) date 2021-06-06 16:07:07*
%MOMM*%
%LPD*%
G01*
G04 APERTURE LIST*
%ADD10C,0.120000*%
%ADD11C,0.150000*%
%ADD12C,0.050000*%
%ADD13C,1.900000*%
%ADD14R,1.900000X1.900000*%
%ADD15C,2.000000*%
%ADD16R,1.700000X2.400000*%
%ADD17O,1.700000X2.400000*%
%ADD18C,1.700000*%
%ADD19R,1.700000X1.700000*%
%ADD20R,2.400000X1.700000*%
%ADD21O,2.400000X1.700000*%
%ADD22O,2.000000X2.400000*%
%ADD23C,0.100000*%
%ADD24C,1.600000*%
%ADD25R,0.750000X2.100000*%
G04 APERTURE END LIST*
D10*
X114351000Y-80823000D02*
X114859000Y-80823000D01*
X114097000Y-80569000D02*
X115113000Y-80569000D01*
X113843000Y-80315000D02*
X115367000Y-80315000D01*
X114605000Y-79553000D02*
X114605000Y-80315000D01*
D11*
X56750000Y-125000000D02*
X143249640Y-125000000D01*
X94833571Y-125852380D02*
X94833571Y-124852380D01*
X95166904Y-125566666D01*
X95500238Y-124852380D01*
X95500238Y-125852380D01*
X96119285Y-125852380D02*
X96024047Y-125804761D01*
X95976428Y-125757142D01*
X95928809Y-125661904D01*
X95928809Y-125376190D01*
X95976428Y-125280952D01*
X96024047Y-125233333D01*
X96119285Y-125185714D01*
X96262142Y-125185714D01*
X96357380Y-125233333D01*
X96405000Y-125280952D01*
X96452619Y-125376190D01*
X96452619Y-125661904D01*
X96405000Y-125757142D01*
X96357380Y-125804761D01*
X96262142Y-125852380D01*
X96119285Y-125852380D01*
X96738333Y-125185714D02*
X97119285Y-125185714D01*
X96881190Y-124852380D02*
X96881190Y-125709523D01*
X96928809Y-125804761D01*
X97024047Y-125852380D01*
X97119285Y-125852380D01*
X97452619Y-125852380D02*
X97452619Y-124852380D01*
X97881190Y-125852380D02*
X97881190Y-125328571D01*
X97833571Y-125233333D01*
X97738333Y-125185714D01*
X97595476Y-125185714D01*
X97500238Y-125233333D01*
X97452619Y-125280952D01*
X98738333Y-125804761D02*
X98643095Y-125852380D01*
X98452619Y-125852380D01*
X98357380Y-125804761D01*
X98309761Y-125709523D01*
X98309761Y-125328571D01*
X98357380Y-125233333D01*
X98452619Y-125185714D01*
X98643095Y-125185714D01*
X98738333Y-125233333D01*
X98785952Y-125328571D01*
X98785952Y-125423809D01*
X98309761Y-125519047D01*
X99214523Y-125852380D02*
X99214523Y-125185714D01*
X99214523Y-125376190D02*
X99262142Y-125280952D01*
X99309761Y-125233333D01*
X99405000Y-125185714D01*
X99500238Y-125185714D01*
X99595476Y-125947619D02*
X100357380Y-125947619D01*
X100595476Y-125852380D02*
X100595476Y-125185714D01*
X100595476Y-125280952D02*
X100643095Y-125233333D01*
X100738333Y-125185714D01*
X100881190Y-125185714D01*
X100976428Y-125233333D01*
X101024047Y-125328571D01*
X101024047Y-125852380D01*
X101024047Y-125328571D02*
X101071666Y-125233333D01*
X101166904Y-125185714D01*
X101309761Y-125185714D01*
X101405000Y-125233333D01*
X101452619Y-125328571D01*
X101452619Y-125852380D01*
X102071666Y-125852380D02*
X101976428Y-125804761D01*
X101928809Y-125757142D01*
X101881190Y-125661904D01*
X101881190Y-125376190D01*
X101928809Y-125280952D01*
X101976428Y-125233333D01*
X102071666Y-125185714D01*
X102214523Y-125185714D01*
X102309761Y-125233333D01*
X102357380Y-125280952D01*
X102405000Y-125376190D01*
X102405000Y-125661904D01*
X102357380Y-125757142D01*
X102309761Y-125804761D01*
X102214523Y-125852380D01*
X102071666Y-125852380D01*
X103262142Y-125852380D02*
X103262142Y-124852380D01*
X103262142Y-125804761D02*
X103166904Y-125852380D01*
X102976428Y-125852380D01*
X102881190Y-125804761D01*
X102833571Y-125757142D01*
X102785952Y-125661904D01*
X102785952Y-125376190D01*
X102833571Y-125280952D01*
X102881190Y-125233333D01*
X102976428Y-125185714D01*
X103166904Y-125185714D01*
X103262142Y-125233333D01*
X104166904Y-125185714D02*
X104166904Y-125852380D01*
X103738333Y-125185714D02*
X103738333Y-125709523D01*
X103785952Y-125804761D01*
X103881190Y-125852380D01*
X104024047Y-125852380D01*
X104119285Y-125804761D01*
X104166904Y-125757142D01*
X104785952Y-125852380D02*
X104690714Y-125804761D01*
X104643095Y-125709523D01*
X104643095Y-124852380D01*
X105547857Y-125804761D02*
X105452619Y-125852380D01*
X105262142Y-125852380D01*
X105166904Y-125804761D01*
X105119285Y-125709523D01*
X105119285Y-125328571D01*
X105166904Y-125233333D01*
X105262142Y-125185714D01*
X105452619Y-125185714D01*
X105547857Y-125233333D01*
X105595476Y-125328571D01*
X105595476Y-125423809D01*
X105119285Y-125519047D01*
X105785952Y-125947619D02*
X106547857Y-125947619D01*
X106690714Y-125185714D02*
X106928809Y-125852380D01*
X107166904Y-125185714D01*
X107738333Y-124852380D02*
X107833571Y-124852380D01*
X107928809Y-124900000D01*
X107976428Y-124947619D01*
X108024047Y-125042857D01*
X108071666Y-125233333D01*
X108071666Y-125471428D01*
X108024047Y-125661904D01*
X107976428Y-125757142D01*
X107928809Y-125804761D01*
X107833571Y-125852380D01*
X107738333Y-125852380D01*
X107643095Y-125804761D01*
X107595476Y-125757142D01*
X107547857Y-125661904D01*
X107500238Y-125471428D01*
X107500238Y-125233333D01*
X107547857Y-125042857D01*
X107595476Y-124947619D01*
X107643095Y-124900000D01*
X107738333Y-124852380D01*
X109024047Y-125852380D02*
X108452619Y-125852380D01*
X108738333Y-125852380D02*
X108738333Y-124852380D01*
X108643095Y-124995238D01*
X108547857Y-125090476D01*
X108452619Y-125138095D01*
D12*
%TO.C,XP2*%
X71193000Y-87617000D02*
X57096000Y-87617000D01*
D10*
X71193000Y-77330000D02*
X71193000Y-90284000D01*
X71193000Y-90284000D02*
X57059000Y-90284000D01*
X57059000Y-90284000D02*
X57059000Y-77330000D01*
X57059000Y-77330000D02*
X71193000Y-77330000D01*
D12*
%TO.C,XP6*%
X129442000Y-79998000D02*
X142842000Y-79998000D01*
D10*
X129315000Y-85205000D02*
X129315000Y-77331000D01*
X129315000Y-85205000D02*
X142969000Y-85205000D01*
X142969000Y-85205000D02*
X142969000Y-77331000D01*
X129315000Y-77331000D02*
X142969000Y-77331000D01*
%TO.C,TP10*%
X117710000Y-82220000D02*
G75*
G03*
X117710000Y-82220000I-1200000J0D01*
G01*
%TO.C,TP9*%
X108185000Y-84125000D02*
G75*
G03*
X108185000Y-84125000I-1200000J0D01*
G01*
%TO.C,TP8*%
X117710000Y-78410000D02*
G75*
G03*
X117710000Y-78410000I-1200000J0D01*
G01*
%TO.C,TP7*%
X105645000Y-81585000D02*
G75*
G03*
X105645000Y-81585000I-1200000J0D01*
G01*
%TO.C,U6*%
X80634000Y-84947500D02*
X116194000Y-84947500D01*
X116194000Y-84947500D02*
X116194000Y-98447500D01*
X80634000Y-98447500D02*
X80634000Y-84947500D01*
X80634000Y-95847500D02*
X116194000Y-95847500D01*
X80634000Y-97447500D02*
X116194000Y-97447500D01*
X80634000Y-98447500D02*
X116194000Y-98447500D01*
%TO.C,U4*%
X71300000Y-76310000D02*
X71300000Y-99580000D01*
X71300000Y-99580000D02*
X109654000Y-99580000D01*
X109654000Y-99580000D02*
X109654000Y-76310000D01*
X109654000Y-76310000D02*
X71300000Y-76310000D01*
X71300000Y-80450000D02*
X109654000Y-80450000D01*
X71300000Y-78850000D02*
X109654000Y-78850000D01*
X90475000Y-78850000D02*
X90475000Y-80120000D01*
X102594000Y-80450000D02*
X102594000Y-83450000D01*
X109344000Y-80450000D02*
X109344000Y-83450000D01*
X102594000Y-80450000D02*
X109344000Y-83450000D01*
X109344000Y-83450000D02*
X102594000Y-83450000D01*
X102594000Y-83450000D02*
X109344000Y-80450000D01*
%TO.C,U5*%
X92694000Y-98447500D02*
X116194000Y-98447500D01*
X92694000Y-97447500D02*
X116194000Y-97447500D01*
X92694000Y-95847500D02*
X116194000Y-95847500D01*
X92694000Y-98447500D02*
X92694000Y-84947500D01*
X116194000Y-84947500D02*
X116194000Y-98447500D01*
X92694000Y-84947500D02*
X116194000Y-84947500D01*
%TO.C,U7*%
X72955000Y-108173000D02*
X79705000Y-105173000D01*
X79705000Y-108173000D02*
X72955000Y-108173000D01*
X72955000Y-105173000D02*
X79705000Y-108173000D01*
X100000000Y-103573000D02*
X100000000Y-104843000D01*
X71250000Y-108673000D02*
X71250000Y-82953000D01*
X71250000Y-82953000D02*
X128750000Y-82953000D01*
X128750000Y-82953000D02*
X128750000Y-108673000D01*
X128750000Y-108673000D02*
X71250000Y-108673000D01*
X71250000Y-103573000D02*
X128750000Y-103573000D01*
X71250000Y-105173000D02*
X128750000Y-105173000D01*
X72955000Y-108173000D02*
X72955000Y-105173000D01*
X79705000Y-108173000D02*
X79705000Y-105173000D01*
%TO.C,U8*%
X72955000Y-124979000D02*
X79705000Y-121979000D01*
X79705000Y-124979000D02*
X72955000Y-124979000D01*
X72955000Y-121979000D02*
X79705000Y-124979000D01*
X100000000Y-120379000D02*
X100000000Y-121649000D01*
X71250000Y-142599000D02*
X71250000Y-108441000D01*
X71250000Y-108441000D02*
X128750000Y-108441000D01*
X128750000Y-108441000D02*
X128750000Y-142599000D01*
X128750000Y-142599000D02*
X71250000Y-142599000D01*
X71250000Y-120379000D02*
X128750000Y-120379000D01*
X71250000Y-121979000D02*
X128750000Y-121979000D01*
X72955000Y-124979000D02*
X72955000Y-121979000D01*
X79705000Y-124979000D02*
X79705000Y-121979000D01*
%TO.C,TP4*%
X113900000Y-82220000D02*
G75*
G03*
X113900000Y-82220000I-1200000J0D01*
G01*
%TO.C,TP3*%
X113900000Y-78410000D02*
G75*
G03*
X113900000Y-78410000I-1200000J0D01*
G01*
%TO.C,JP1*%
X112049000Y-89880000D02*
X110049000Y-89880000D01*
X112049000Y-87080000D02*
X112049000Y-89880000D01*
X110049000Y-87080000D02*
X112049000Y-87080000D01*
X110049000Y-89880000D02*
X110049000Y-87080000D01*
D12*
%TO.C,XP3*%
X71186500Y-102730000D02*
X57089500Y-102730000D01*
D10*
X71186500Y-92443000D02*
X71186500Y-105397000D01*
X71186500Y-105397000D02*
X57052500Y-105397000D01*
X57052500Y-105397000D02*
X57052500Y-92443000D01*
X57052500Y-92443000D02*
X71186500Y-92443000D01*
%TO.C,TP16*%
X116948000Y-134798000D02*
G75*
G03*
X116948000Y-134798000I-1200000J0D01*
G01*
%TO.C,TP15*%
X111360000Y-131496000D02*
G75*
G03*
X111360000Y-131496000I-1200000J0D01*
G01*
%TO.C,TP12*%
X114408000Y-131496000D02*
G75*
G03*
X114408000Y-131496000I-1200000J0D01*
G01*
%TO.C,TP11*%
X116948000Y-137846000D02*
G75*
G03*
X116948000Y-137846000I-1200000J0D01*
G01*
%TO.C,TP14*%
X103232000Y-133020000D02*
G75*
G03*
X103232000Y-133020000I-1200000J0D01*
G01*
%TO.C,TP13*%
X103232000Y-136068000D02*
G75*
G03*
X103232000Y-136068000I-1200000J0D01*
G01*
%TO.C,XP1*%
X70698500Y-138798000D02*
X57044500Y-138798000D01*
X57044500Y-105524000D02*
X57044500Y-138798000D01*
X70698500Y-105524000D02*
X57044500Y-105524000D01*
X70698500Y-105524000D02*
X70698500Y-138798000D01*
D12*
X70571500Y-136131000D02*
X57171500Y-136131000D01*
D10*
%TO.C,TP2*%
X94088000Y-136068000D02*
G75*
G03*
X94088000Y-136068000I-1200000J0D01*
G01*
D12*
%TO.C,XP4*%
X129478500Y-121400000D02*
X142878500Y-121400000D01*
D10*
X129351500Y-139307000D02*
X129351500Y-118733000D01*
X129351500Y-139307000D02*
X143005500Y-139307000D01*
X143005500Y-139307000D02*
X143005500Y-118733000D01*
X129351500Y-118733000D02*
X143005500Y-118733000D01*
%TO.C,TP1*%
X94088000Y-133020000D02*
G75*
G03*
X94088000Y-133020000I-1200000J0D01*
G01*
%TO.C,U3*%
X100000000Y-138092000D02*
X100000000Y-139342000D01*
X72955000Y-137592000D02*
X79705000Y-134592000D01*
X79705000Y-134592000D02*
X72955000Y-134592000D01*
X72955000Y-134592000D02*
X79705000Y-137592000D01*
X71250000Y-142692000D02*
X71250000Y-132512000D01*
X71250000Y-132512000D02*
X114303000Y-132512000D01*
X114303000Y-132512000D02*
X114303000Y-142692000D01*
X114303000Y-142692000D02*
X71250000Y-142692000D01*
X71250000Y-137592000D02*
X114303000Y-137592000D01*
X71250000Y-139192000D02*
X114303000Y-139192000D01*
X72955000Y-137592000D02*
X72955000Y-134592000D01*
X79705000Y-137592000D02*
X79705000Y-134592000D01*
D12*
%TO.C,XP5*%
X128870500Y-87999000D02*
X142967500Y-87999000D01*
D10*
X128870500Y-118606000D02*
X128870500Y-85332000D01*
X128870500Y-85332000D02*
X143004500Y-85332000D01*
X143004500Y-85332000D02*
X143004500Y-118606000D01*
X143004500Y-118606000D02*
X128870500Y-118606000D01*
%TO.C,TP6*%
X77578000Y-113208000D02*
G75*
G03*
X77578000Y-113208000I-1200000J0D01*
G01*
%TO.C,TP5*%
X75038000Y-110414000D02*
G75*
G03*
X75038000Y-110414000I-1200000J0D01*
G01*
%TO.C,XP2*%
D11*
X71512380Y-86069523D02*
X72512380Y-85402857D01*
X71512380Y-85402857D02*
X72512380Y-86069523D01*
X72512380Y-85021904D02*
X71512380Y-85021904D01*
X71512380Y-84640952D01*
X71560000Y-84545714D01*
X71607619Y-84498095D01*
X71702857Y-84450476D01*
X71845714Y-84450476D01*
X71940952Y-84498095D01*
X71988571Y-84545714D01*
X72036190Y-84640952D01*
X72036190Y-85021904D01*
X71607619Y-84069523D02*
X71560000Y-84021904D01*
X71512380Y-83926666D01*
X71512380Y-83688571D01*
X71560000Y-83593333D01*
X71607619Y-83545714D01*
X71702857Y-83498095D01*
X71798095Y-83498095D01*
X71940952Y-83545714D01*
X72512380Y-84117142D01*
X72512380Y-83498095D01*
%TO.C,XP6*%
X127646380Y-81243523D02*
X128646380Y-80576857D01*
X127646380Y-80576857D02*
X128646380Y-81243523D01*
X128646380Y-80195904D02*
X127646380Y-80195904D01*
X127646380Y-79814952D01*
X127694000Y-79719714D01*
X127741619Y-79672095D01*
X127836857Y-79624476D01*
X127979714Y-79624476D01*
X128074952Y-79672095D01*
X128122571Y-79719714D01*
X128170190Y-79814952D01*
X128170190Y-80195904D01*
X127646380Y-78767333D02*
X127646380Y-78957809D01*
X127694000Y-79053047D01*
X127741619Y-79100666D01*
X127884476Y-79195904D01*
X128074952Y-79243523D01*
X128455904Y-79243523D01*
X128551142Y-79195904D01*
X128598761Y-79148285D01*
X128646380Y-79053047D01*
X128646380Y-78862571D01*
X128598761Y-78767333D01*
X128551142Y-78719714D01*
X128455904Y-78672095D01*
X128217809Y-78672095D01*
X128122571Y-78719714D01*
X128074952Y-78767333D01*
X128027333Y-78862571D01*
X128027333Y-79053047D01*
X128074952Y-79148285D01*
X128122571Y-79195904D01*
X128217809Y-79243523D01*
%TO.C,TP9*%
X105723095Y-81579380D02*
X106294523Y-81579380D01*
X106008809Y-82579380D02*
X106008809Y-81579380D01*
X106627857Y-82579380D02*
X106627857Y-81579380D01*
X107008809Y-81579380D01*
X107104047Y-81627000D01*
X107151666Y-81674619D01*
X107199285Y-81769857D01*
X107199285Y-81912714D01*
X107151666Y-82007952D01*
X107104047Y-82055571D01*
X107008809Y-82103190D01*
X106627857Y-82103190D01*
X107675476Y-82579380D02*
X107865952Y-82579380D01*
X107961190Y-82531761D01*
X108008809Y-82484142D01*
X108104047Y-82341285D01*
X108151666Y-82150809D01*
X108151666Y-81769857D01*
X108104047Y-81674619D01*
X108056428Y-81627000D01*
X107961190Y-81579380D01*
X107770714Y-81579380D01*
X107675476Y-81627000D01*
X107627857Y-81674619D01*
X107580238Y-81769857D01*
X107580238Y-82007952D01*
X107627857Y-82103190D01*
X107675476Y-82150809D01*
X107770714Y-82198428D01*
X107961190Y-82198428D01*
X108056428Y-82150809D01*
X108104047Y-82103190D01*
X108151666Y-82007952D01*
%TO.C,TP7*%
X103183095Y-79039380D02*
X103754523Y-79039380D01*
X103468809Y-80039380D02*
X103468809Y-79039380D01*
X104087857Y-80039380D02*
X104087857Y-79039380D01*
X104468809Y-79039380D01*
X104564047Y-79087000D01*
X104611666Y-79134619D01*
X104659285Y-79229857D01*
X104659285Y-79372714D01*
X104611666Y-79467952D01*
X104564047Y-79515571D01*
X104468809Y-79563190D01*
X104087857Y-79563190D01*
X104992619Y-79039380D02*
X105659285Y-79039380D01*
X105230714Y-80039380D01*
%TO.C,U6*%
X116764095Y-96150380D02*
X116764095Y-96959904D01*
X116811714Y-97055142D01*
X116859333Y-97102761D01*
X116954571Y-97150380D01*
X117145047Y-97150380D01*
X117240285Y-97102761D01*
X117287904Y-97055142D01*
X117335523Y-96959904D01*
X117335523Y-96150380D01*
X118240285Y-96150380D02*
X118049809Y-96150380D01*
X117954571Y-96198000D01*
X117906952Y-96245619D01*
X117811714Y-96388476D01*
X117764095Y-96578952D01*
X117764095Y-96959904D01*
X117811714Y-97055142D01*
X117859333Y-97102761D01*
X117954571Y-97150380D01*
X118145047Y-97150380D01*
X118240285Y-97102761D01*
X118287904Y-97055142D01*
X118335523Y-96959904D01*
X118335523Y-96721809D01*
X118287904Y-96626571D01*
X118240285Y-96578952D01*
X118145047Y-96531333D01*
X117954571Y-96531333D01*
X117859333Y-96578952D01*
X117811714Y-96626571D01*
X117764095Y-96721809D01*
%TO.C,U4*%
X110160095Y-79640380D02*
X110160095Y-80449904D01*
X110207714Y-80545142D01*
X110255333Y-80592761D01*
X110350571Y-80640380D01*
X110541047Y-80640380D01*
X110636285Y-80592761D01*
X110683904Y-80545142D01*
X110731523Y-80449904D01*
X110731523Y-79640380D01*
X111636285Y-79973714D02*
X111636285Y-80640380D01*
X111398190Y-79592761D02*
X111160095Y-80307047D01*
X111779142Y-80307047D01*
%TO.C,U5*%
X116764095Y-94626380D02*
X116764095Y-95435904D01*
X116811714Y-95531142D01*
X116859333Y-95578761D01*
X116954571Y-95626380D01*
X117145047Y-95626380D01*
X117240285Y-95578761D01*
X117287904Y-95531142D01*
X117335523Y-95435904D01*
X117335523Y-94626380D01*
X118287904Y-94626380D02*
X117811714Y-94626380D01*
X117764095Y-95102571D01*
X117811714Y-95054952D01*
X117906952Y-95007333D01*
X118145047Y-95007333D01*
X118240285Y-95054952D01*
X118287904Y-95102571D01*
X118335523Y-95197809D01*
X118335523Y-95435904D01*
X118287904Y-95531142D01*
X118240285Y-95578761D01*
X118145047Y-95626380D01*
X117906952Y-95626380D01*
X117811714Y-95578761D01*
X117764095Y-95531142D01*
%TO.C,U7*%
X126416095Y-106056380D02*
X126416095Y-106865904D01*
X126463714Y-106961142D01*
X126511333Y-107008761D01*
X126606571Y-107056380D01*
X126797047Y-107056380D01*
X126892285Y-107008761D01*
X126939904Y-106961142D01*
X126987523Y-106865904D01*
X126987523Y-106056380D01*
X127368476Y-106056380D02*
X128035142Y-106056380D01*
X127606571Y-107056380D01*
%TO.C,U8*%
X123368095Y-118502380D02*
X123368095Y-119311904D01*
X123415714Y-119407142D01*
X123463333Y-119454761D01*
X123558571Y-119502380D01*
X123749047Y-119502380D01*
X123844285Y-119454761D01*
X123891904Y-119407142D01*
X123939523Y-119311904D01*
X123939523Y-118502380D01*
X124558571Y-118930952D02*
X124463333Y-118883333D01*
X124415714Y-118835714D01*
X124368095Y-118740476D01*
X124368095Y-118692857D01*
X124415714Y-118597619D01*
X124463333Y-118550000D01*
X124558571Y-118502380D01*
X124749047Y-118502380D01*
X124844285Y-118550000D01*
X124891904Y-118597619D01*
X124939523Y-118692857D01*
X124939523Y-118740476D01*
X124891904Y-118835714D01*
X124844285Y-118883333D01*
X124749047Y-118930952D01*
X124558571Y-118930952D01*
X124463333Y-118978571D01*
X124415714Y-119026190D01*
X124368095Y-119121428D01*
X124368095Y-119311904D01*
X124415714Y-119407142D01*
X124463333Y-119454761D01*
X124558571Y-119502380D01*
X124749047Y-119502380D01*
X124844285Y-119454761D01*
X124891904Y-119407142D01*
X124939523Y-119311904D01*
X124939523Y-119121428D01*
X124891904Y-119026190D01*
X124844285Y-118978571D01*
X124749047Y-118930952D01*
%TO.C,JP1*%
X113407666Y-88040380D02*
X113407666Y-88754666D01*
X113360047Y-88897523D01*
X113264809Y-88992761D01*
X113121952Y-89040380D01*
X113026714Y-89040380D01*
X113883857Y-89040380D02*
X113883857Y-88040380D01*
X114264809Y-88040380D01*
X114360047Y-88088000D01*
X114407666Y-88135619D01*
X114455285Y-88230857D01*
X114455285Y-88373714D01*
X114407666Y-88468952D01*
X114360047Y-88516571D01*
X114264809Y-88564190D01*
X113883857Y-88564190D01*
X115407666Y-89040380D02*
X114836238Y-89040380D01*
X115121952Y-89040380D02*
X115121952Y-88040380D01*
X115026714Y-88183238D01*
X114931476Y-88278476D01*
X114836238Y-88326095D01*
%TO.C,XP3*%
X64216976Y-90562380D02*
X64883642Y-91562380D01*
X64883642Y-90562380D02*
X64216976Y-91562380D01*
X65264595Y-91562380D02*
X65264595Y-90562380D01*
X65645547Y-90562380D01*
X65740785Y-90610000D01*
X65788404Y-90657619D01*
X65836023Y-90752857D01*
X65836023Y-90895714D01*
X65788404Y-90990952D01*
X65740785Y-91038571D01*
X65645547Y-91086190D01*
X65264595Y-91086190D01*
X66169357Y-90562380D02*
X66788404Y-90562380D01*
X66455071Y-90943333D01*
X66597928Y-90943333D01*
X66693166Y-90990952D01*
X66740785Y-91038571D01*
X66788404Y-91133809D01*
X66788404Y-91371904D01*
X66740785Y-91467142D01*
X66693166Y-91514761D01*
X66597928Y-91562380D01*
X66312214Y-91562380D01*
X66216976Y-91514761D01*
X66169357Y-91467142D01*
%TO.C,TP16*%
X117057904Y-133996380D02*
X117629333Y-133996380D01*
X117343619Y-134996380D02*
X117343619Y-133996380D01*
X117962666Y-134996380D02*
X117962666Y-133996380D01*
X118343619Y-133996380D01*
X118438857Y-134044000D01*
X118486476Y-134091619D01*
X118534095Y-134186857D01*
X118534095Y-134329714D01*
X118486476Y-134424952D01*
X118438857Y-134472571D01*
X118343619Y-134520190D01*
X117962666Y-134520190D01*
X119486476Y-134996380D02*
X118915047Y-134996380D01*
X119200761Y-134996380D02*
X119200761Y-133996380D01*
X119105523Y-134139238D01*
X119010285Y-134234476D01*
X118915047Y-134282095D01*
X120343619Y-133996380D02*
X120153142Y-133996380D01*
X120057904Y-134044000D01*
X120010285Y-134091619D01*
X119915047Y-134234476D01*
X119867428Y-134424952D01*
X119867428Y-134805904D01*
X119915047Y-134901142D01*
X119962666Y-134948761D01*
X120057904Y-134996380D01*
X120248380Y-134996380D01*
X120343619Y-134948761D01*
X120391238Y-134901142D01*
X120438857Y-134805904D01*
X120438857Y-134567809D01*
X120391238Y-134472571D01*
X120343619Y-134424952D01*
X120248380Y-134377333D01*
X120057904Y-134377333D01*
X119962666Y-134424952D01*
X119915047Y-134472571D01*
X119867428Y-134567809D01*
%TO.C,TP15*%
X108421904Y-128916380D02*
X108993333Y-128916380D01*
X108707619Y-129916380D02*
X108707619Y-128916380D01*
X109326666Y-129916380D02*
X109326666Y-128916380D01*
X109707619Y-128916380D01*
X109802857Y-128964000D01*
X109850476Y-129011619D01*
X109898095Y-129106857D01*
X109898095Y-129249714D01*
X109850476Y-129344952D01*
X109802857Y-129392571D01*
X109707619Y-129440190D01*
X109326666Y-129440190D01*
X110850476Y-129916380D02*
X110279047Y-129916380D01*
X110564761Y-129916380D02*
X110564761Y-128916380D01*
X110469523Y-129059238D01*
X110374285Y-129154476D01*
X110279047Y-129202095D01*
X111755238Y-128916380D02*
X111279047Y-128916380D01*
X111231428Y-129392571D01*
X111279047Y-129344952D01*
X111374285Y-129297333D01*
X111612380Y-129297333D01*
X111707619Y-129344952D01*
X111755238Y-129392571D01*
X111802857Y-129487809D01*
X111802857Y-129725904D01*
X111755238Y-129821142D01*
X111707619Y-129868761D01*
X111612380Y-129916380D01*
X111374285Y-129916380D01*
X111279047Y-129868761D01*
X111231428Y-129821142D01*
%TO.C,TP12*%
X114517904Y-130694380D02*
X115089333Y-130694380D01*
X114803619Y-131694380D02*
X114803619Y-130694380D01*
X115422666Y-131694380D02*
X115422666Y-130694380D01*
X115803619Y-130694380D01*
X115898857Y-130742000D01*
X115946476Y-130789619D01*
X115994095Y-130884857D01*
X115994095Y-131027714D01*
X115946476Y-131122952D01*
X115898857Y-131170571D01*
X115803619Y-131218190D01*
X115422666Y-131218190D01*
X116946476Y-131694380D02*
X116375047Y-131694380D01*
X116660761Y-131694380D02*
X116660761Y-130694380D01*
X116565523Y-130837238D01*
X116470285Y-130932476D01*
X116375047Y-130980095D01*
X117327428Y-130789619D02*
X117375047Y-130742000D01*
X117470285Y-130694380D01*
X117708380Y-130694380D01*
X117803619Y-130742000D01*
X117851238Y-130789619D01*
X117898857Y-130884857D01*
X117898857Y-130980095D01*
X117851238Y-131122952D01*
X117279809Y-131694380D01*
X117898857Y-131694380D01*
%TO.C,TP11*%
X117057904Y-137044380D02*
X117629333Y-137044380D01*
X117343619Y-138044380D02*
X117343619Y-137044380D01*
X117962666Y-138044380D02*
X117962666Y-137044380D01*
X118343619Y-137044380D01*
X118438857Y-137092000D01*
X118486476Y-137139619D01*
X118534095Y-137234857D01*
X118534095Y-137377714D01*
X118486476Y-137472952D01*
X118438857Y-137520571D01*
X118343619Y-137568190D01*
X117962666Y-137568190D01*
X119486476Y-138044380D02*
X118915047Y-138044380D01*
X119200761Y-138044380D02*
X119200761Y-137044380D01*
X119105523Y-137187238D01*
X119010285Y-137282476D01*
X118915047Y-137330095D01*
X120438857Y-138044380D02*
X119867428Y-138044380D01*
X120153142Y-138044380D02*
X120153142Y-137044380D01*
X120057904Y-137187238D01*
X119962666Y-137282476D01*
X119867428Y-137330095D01*
%TO.C,TP14*%
X100801904Y-130186380D02*
X101373333Y-130186380D01*
X101087619Y-131186380D02*
X101087619Y-130186380D01*
X101706666Y-131186380D02*
X101706666Y-130186380D01*
X102087619Y-130186380D01*
X102182857Y-130234000D01*
X102230476Y-130281619D01*
X102278095Y-130376857D01*
X102278095Y-130519714D01*
X102230476Y-130614952D01*
X102182857Y-130662571D01*
X102087619Y-130710190D01*
X101706666Y-130710190D01*
X103230476Y-131186380D02*
X102659047Y-131186380D01*
X102944761Y-131186380D02*
X102944761Y-130186380D01*
X102849523Y-130329238D01*
X102754285Y-130424476D01*
X102659047Y-130472095D01*
X104087619Y-130519714D02*
X104087619Y-131186380D01*
X103849523Y-130138761D02*
X103611428Y-130853047D01*
X104230476Y-130853047D01*
%TO.C,TP13*%
X100801904Y-137806380D02*
X101373333Y-137806380D01*
X101087619Y-138806380D02*
X101087619Y-137806380D01*
X101706666Y-138806380D02*
X101706666Y-137806380D01*
X102087619Y-137806380D01*
X102182857Y-137854000D01*
X102230476Y-137901619D01*
X102278095Y-137996857D01*
X102278095Y-138139714D01*
X102230476Y-138234952D01*
X102182857Y-138282571D01*
X102087619Y-138330190D01*
X101706666Y-138330190D01*
X103230476Y-138806380D02*
X102659047Y-138806380D01*
X102944761Y-138806380D02*
X102944761Y-137806380D01*
X102849523Y-137949238D01*
X102754285Y-138044476D01*
X102659047Y-138092095D01*
X103563809Y-137806380D02*
X104182857Y-137806380D01*
X103849523Y-138187333D01*
X103992380Y-138187333D01*
X104087619Y-138234952D01*
X104135238Y-138282571D01*
X104182857Y-138377809D01*
X104182857Y-138615904D01*
X104135238Y-138711142D01*
X104087619Y-138758761D01*
X103992380Y-138806380D01*
X103706666Y-138806380D01*
X103611428Y-138758761D01*
X103563809Y-138711142D01*
%TO.C,XP1*%
X69480380Y-111469523D02*
X70480380Y-110802857D01*
X69480380Y-110802857D02*
X70480380Y-111469523D01*
X70480380Y-110421904D02*
X69480380Y-110421904D01*
X69480380Y-110040952D01*
X69528000Y-109945714D01*
X69575619Y-109898095D01*
X69670857Y-109850476D01*
X69813714Y-109850476D01*
X69908952Y-109898095D01*
X69956571Y-109945714D01*
X70004190Y-110040952D01*
X70004190Y-110421904D01*
X70480380Y-108898095D02*
X70480380Y-109469523D01*
X70480380Y-109183809D02*
X69480380Y-109183809D01*
X69623238Y-109279047D01*
X69718476Y-109374285D01*
X69766095Y-109469523D01*
%TO.C,TP2*%
X91626095Y-137806380D02*
X92197523Y-137806380D01*
X91911809Y-138806380D02*
X91911809Y-137806380D01*
X92530857Y-138806380D02*
X92530857Y-137806380D01*
X92911809Y-137806380D01*
X93007047Y-137854000D01*
X93054666Y-137901619D01*
X93102285Y-137996857D01*
X93102285Y-138139714D01*
X93054666Y-138234952D01*
X93007047Y-138282571D01*
X92911809Y-138330190D01*
X92530857Y-138330190D01*
X93483238Y-137901619D02*
X93530857Y-137854000D01*
X93626095Y-137806380D01*
X93864190Y-137806380D01*
X93959428Y-137854000D01*
X94007047Y-137901619D01*
X94054666Y-137996857D01*
X94054666Y-138092095D01*
X94007047Y-138234952D01*
X93435619Y-138806380D01*
X94054666Y-138806380D01*
%TO.C,XP4*%
X127392380Y-128741523D02*
X128392380Y-128074857D01*
X127392380Y-128074857D02*
X128392380Y-128741523D01*
X128392380Y-127693904D02*
X127392380Y-127693904D01*
X127392380Y-127312952D01*
X127440000Y-127217714D01*
X127487619Y-127170095D01*
X127582857Y-127122476D01*
X127725714Y-127122476D01*
X127820952Y-127170095D01*
X127868571Y-127217714D01*
X127916190Y-127312952D01*
X127916190Y-127693904D01*
X127725714Y-126265333D02*
X128392380Y-126265333D01*
X127344761Y-126503428D02*
X128059047Y-126741523D01*
X128059047Y-126122476D01*
%TO.C,TP1*%
X91626095Y-130186380D02*
X92197523Y-130186380D01*
X91911809Y-131186380D02*
X91911809Y-130186380D01*
X92530857Y-131186380D02*
X92530857Y-130186380D01*
X92911809Y-130186380D01*
X93007047Y-130234000D01*
X93054666Y-130281619D01*
X93102285Y-130376857D01*
X93102285Y-130519714D01*
X93054666Y-130614952D01*
X93007047Y-130662571D01*
X92911809Y-130710190D01*
X92530857Y-130710190D01*
X94054666Y-131186380D02*
X93483238Y-131186380D01*
X93768952Y-131186380D02*
X93768952Y-130186380D01*
X93673714Y-130329238D01*
X93578476Y-130424476D01*
X93483238Y-130472095D01*
%TO.C,U3*%
X71806095Y-139838380D02*
X71806095Y-140647904D01*
X71853714Y-140743142D01*
X71901333Y-140790761D01*
X71996571Y-140838380D01*
X72187047Y-140838380D01*
X72282285Y-140790761D01*
X72329904Y-140743142D01*
X72377523Y-140647904D01*
X72377523Y-139838380D01*
X72758476Y-139838380D02*
X73377523Y-139838380D01*
X73044190Y-140219333D01*
X73187047Y-140219333D01*
X73282285Y-140266952D01*
X73329904Y-140314571D01*
X73377523Y-140409809D01*
X73377523Y-140647904D01*
X73329904Y-140743142D01*
X73282285Y-140790761D01*
X73187047Y-140838380D01*
X72901333Y-140838380D01*
X72806095Y-140790761D01*
X72758476Y-140743142D01*
%TO.C,XP5*%
X127392380Y-111723523D02*
X128392380Y-111056857D01*
X127392380Y-111056857D02*
X128392380Y-111723523D01*
X128392380Y-110675904D02*
X127392380Y-110675904D01*
X127392380Y-110294952D01*
X127440000Y-110199714D01*
X127487619Y-110152095D01*
X127582857Y-110104476D01*
X127725714Y-110104476D01*
X127820952Y-110152095D01*
X127868571Y-110199714D01*
X127916190Y-110294952D01*
X127916190Y-110675904D01*
X127392380Y-109199714D02*
X127392380Y-109675904D01*
X127868571Y-109723523D01*
X127820952Y-109675904D01*
X127773333Y-109580666D01*
X127773333Y-109342571D01*
X127820952Y-109247333D01*
X127868571Y-109199714D01*
X127963809Y-109152095D01*
X128201904Y-109152095D01*
X128297142Y-109199714D01*
X128344761Y-109247333D01*
X128392380Y-109342571D01*
X128392380Y-109580666D01*
X128344761Y-109675904D01*
X128297142Y-109723523D01*
%TO.C,TP6*%
X72322095Y-111898380D02*
X72893523Y-111898380D01*
X72607809Y-112898380D02*
X72607809Y-111898380D01*
X73226857Y-112898380D02*
X73226857Y-111898380D01*
X73607809Y-111898380D01*
X73703047Y-111946000D01*
X73750666Y-111993619D01*
X73798285Y-112088857D01*
X73798285Y-112231714D01*
X73750666Y-112326952D01*
X73703047Y-112374571D01*
X73607809Y-112422190D01*
X73226857Y-112422190D01*
X74655428Y-111898380D02*
X74464952Y-111898380D01*
X74369714Y-111946000D01*
X74322095Y-111993619D01*
X74226857Y-112136476D01*
X74179238Y-112326952D01*
X74179238Y-112707904D01*
X74226857Y-112803142D01*
X74274476Y-112850761D01*
X74369714Y-112898380D01*
X74560190Y-112898380D01*
X74655428Y-112850761D01*
X74703047Y-112803142D01*
X74750666Y-112707904D01*
X74750666Y-112469809D01*
X74703047Y-112374571D01*
X74655428Y-112326952D01*
X74560190Y-112279333D01*
X74369714Y-112279333D01*
X74274476Y-112326952D01*
X74226857Y-112374571D01*
X74179238Y-112469809D01*
%TO.C,TP5*%
X75116095Y-109104380D02*
X75687523Y-109104380D01*
X75401809Y-110104380D02*
X75401809Y-109104380D01*
X76020857Y-110104380D02*
X76020857Y-109104380D01*
X76401809Y-109104380D01*
X76497047Y-109152000D01*
X76544666Y-109199619D01*
X76592285Y-109294857D01*
X76592285Y-109437714D01*
X76544666Y-109532952D01*
X76497047Y-109580571D01*
X76401809Y-109628190D01*
X76020857Y-109628190D01*
X77497047Y-109104380D02*
X77020857Y-109104380D01*
X76973238Y-109580571D01*
X77020857Y-109532952D01*
X77116095Y-109485333D01*
X77354190Y-109485333D01*
X77449428Y-109532952D01*
X77497047Y-109580571D01*
X77544666Y-109675809D01*
X77544666Y-109913904D01*
X77497047Y-110009142D01*
X77449428Y-110056761D01*
X77354190Y-110104380D01*
X77116095Y-110104380D01*
X77020857Y-110056761D01*
X76973238Y-110009142D01*
%TO.C,U1*%
X99187295Y-100557280D02*
X99187295Y-101366804D01*
X99234914Y-101462042D01*
X99282533Y-101509661D01*
X99377771Y-101557280D01*
X99568247Y-101557280D01*
X99663485Y-101509661D01*
X99711104Y-101462042D01*
X99758723Y-101366804D01*
X99758723Y-100557280D01*
X100758723Y-101557280D02*
X100187295Y-101557280D01*
X100473009Y-101557280D02*
X100473009Y-100557280D01*
X100377771Y-100700138D01*
X100282533Y-100795376D01*
X100187295Y-100842995D01*
%TO.C,U2*%
X99211295Y-98436380D02*
X99211295Y-99245904D01*
X99258914Y-99341142D01*
X99306533Y-99388761D01*
X99401771Y-99436380D01*
X99592247Y-99436380D01*
X99687485Y-99388761D01*
X99735104Y-99341142D01*
X99782723Y-99245904D01*
X99782723Y-98436380D01*
X100211295Y-98531619D02*
X100258914Y-98484000D01*
X100354152Y-98436380D01*
X100592247Y-98436380D01*
X100687485Y-98484000D01*
X100735104Y-98531619D01*
X100782723Y-98626857D01*
X100782723Y-98722095D01*
X100735104Y-98864952D01*
X100163676Y-99436380D01*
X100782723Y-99436380D01*
%TD*%
%LPC*%
D13*
%TO.C,XP2*%
X61646000Y-84887000D03*
X69166000Y-84887000D03*
D14*
X61646000Y-79807000D03*
D13*
X69166000Y-79807000D03*
%TD*%
%TO.C,XP6*%
X137492000Y-81458000D03*
X132512000Y-81458000D03*
D14*
X137492000Y-83998000D03*
D13*
X132512000Y-83998000D03*
%TD*%
D15*
%TO.C,TP10*%
X116510000Y-82220000D03*
%TD*%
%TO.C,TP9*%
X106985000Y-84125000D03*
%TD*%
%TO.C,TP8*%
X116510000Y-78410000D03*
%TD*%
%TO.C,TP7*%
X104445000Y-81585000D03*
%TD*%
D16*
%TO.C,U6*%
X83744000Y-92697500D03*
D17*
X88824000Y-92697500D03*
X111684000Y-92697500D03*
X114224000Y-92697500D03*
%TD*%
D18*
%TO.C,U4*%
X106860000Y-77470000D03*
D19*
X104320000Y-77470000D03*
D20*
X75618000Y-77470000D03*
X80698000Y-77470000D03*
D21*
X85778000Y-77470000D03*
D20*
X91620000Y-77470000D03*
D21*
X96700000Y-77470000D03*
%TD*%
D16*
%TO.C,U5*%
X93904000Y-92697500D03*
D17*
X98984000Y-92697500D03*
X111684000Y-92697500D03*
X114224000Y-92697500D03*
%TD*%
D22*
%TO.C,U7*%
X124336000Y-106553000D03*
X118240000Y-106553000D03*
X111890000Y-106553000D03*
D19*
X73790000Y-106553000D03*
D18*
X76330000Y-106553000D03*
D22*
X92840000Y-106553000D03*
X99190000Y-106553000D03*
X105540000Y-106553000D03*
%TD*%
D19*
%TO.C,U8*%
X73790000Y-118999000D03*
D18*
X76330000Y-118999000D03*
D22*
X90300000Y-118999000D03*
X85220000Y-118999000D03*
X127130000Y-118999000D03*
%TD*%
D15*
%TO.C,TP4*%
X112700000Y-82220000D03*
%TD*%
%TO.C,TP3*%
X112700000Y-78410000D03*
%TD*%
D23*
%TO.C,JP1*%
G36*
X111049000Y-88205000D02*
G01*
X111799000Y-88705000D01*
X111799000Y-89705000D01*
X110299000Y-89705000D01*
X110299000Y-88705000D01*
X111049000Y-88205000D01*
G37*
G36*
X111799000Y-87255000D02*
G01*
X111799000Y-88405000D01*
X111049000Y-87905000D01*
X110299000Y-88405000D01*
X110299000Y-87255000D01*
X111799000Y-87255000D01*
G37*
%TD*%
D24*
%TO.C,RV1*%
X71482000Y-77982000D03*
X73582000Y-82982000D03*
%TD*%
%TO.C,RV2*%
X72902000Y-99052000D03*
X77902000Y-96952000D03*
%TD*%
%TO.C,F2*%
X68193500Y-92634000D03*
X78353500Y-92634000D03*
X63113500Y-92634000D03*
X73273500Y-92634000D03*
%TD*%
D13*
%TO.C,XP3*%
X61639500Y-100000000D03*
X69159500Y-100000000D03*
D14*
X61639500Y-94920000D03*
D13*
X69159500Y-94920000D03*
%TD*%
D15*
%TO.C,TP16*%
X115748000Y-134798000D03*
%TD*%
%TO.C,TP15*%
X110160000Y-131496000D03*
%TD*%
%TO.C,TP12*%
X113208000Y-131496000D03*
%TD*%
%TO.C,TP11*%
X115748000Y-137846000D03*
%TD*%
%TO.C,TP14*%
X102032000Y-133020000D03*
%TD*%
%TO.C,TP13*%
X102032000Y-136068000D03*
%TD*%
D13*
%TO.C,XP1*%
X67501500Y-134671000D03*
X62521500Y-134671000D03*
X62521500Y-132131000D03*
X67501500Y-132131000D03*
X67501500Y-129591000D03*
X62521500Y-129591000D03*
X67501500Y-127051000D03*
X62521500Y-127051000D03*
X62521500Y-124511000D03*
X67501500Y-124511000D03*
X62521500Y-121971000D03*
X67501500Y-121971000D03*
X62521500Y-119431000D03*
X67501500Y-119431000D03*
X62521500Y-116891000D03*
X67501500Y-116891000D03*
X62521500Y-114351000D03*
X67501500Y-114351000D03*
X62521500Y-111811000D03*
X67501500Y-111811000D03*
X62521500Y-109271000D03*
X67501500Y-109271000D03*
D14*
X62521500Y-106731000D03*
D13*
X67501500Y-106731000D03*
%TD*%
D15*
%TO.C,TP2*%
X92888000Y-136068000D03*
%TD*%
D13*
%TO.C,XP4*%
X137528500Y-122860000D03*
X132548500Y-122860000D03*
X137528500Y-125400000D03*
X132548500Y-125400000D03*
X137528500Y-127940000D03*
X132548500Y-127940000D03*
X137528500Y-130480000D03*
X132548500Y-130480000D03*
X137528500Y-133020000D03*
X132548500Y-133020000D03*
X137528500Y-135560000D03*
X132548500Y-135560000D03*
D14*
X137528500Y-138100000D03*
D13*
X132548500Y-138100000D03*
%TD*%
D15*
%TO.C,TP1*%
X92888000Y-133020000D03*
%TD*%
D25*
%TO.C,U3*%
X110922000Y-137842000D03*
X110922000Y-134242000D03*
X109652000Y-137842000D03*
X109652000Y-134242000D03*
X108382000Y-137842000D03*
X108382000Y-134242000D03*
X107112000Y-137842000D03*
X107112000Y-134242000D03*
X105842000Y-137842000D03*
X105842000Y-134242000D03*
X100000000Y-137842000D03*
X100000000Y-134242000D03*
X98730000Y-137842000D03*
X98730000Y-134242000D03*
X97460000Y-137842000D03*
X97460000Y-134242000D03*
X96190000Y-137842000D03*
X96190000Y-134242000D03*
X94920000Y-137842000D03*
X94920000Y-134242000D03*
X90856000Y-137842000D03*
X90856000Y-134242000D03*
X89586000Y-137842000D03*
X89586000Y-134242000D03*
X88316000Y-137842000D03*
X88316000Y-134242000D03*
X87046000Y-137842000D03*
X87046000Y-134242000D03*
X85776000Y-137842000D03*
X85776000Y-134242000D03*
D18*
X78870000Y-136212000D03*
X76330000Y-136212000D03*
D19*
X73790000Y-136212000D03*
%TD*%
D13*
%TO.C,XP5*%
X138417500Y-90729000D03*
X130897500Y-90729000D03*
X138417500Y-95809000D03*
X130897500Y-95809000D03*
X138417500Y-100889000D03*
X130897500Y-100889000D03*
X138417500Y-105969000D03*
X130897500Y-105969000D03*
X138417500Y-111049000D03*
X130897500Y-111049000D03*
D14*
X138417500Y-116129000D03*
D13*
X130897500Y-116129000D03*
%TD*%
D15*
%TO.C,TP6*%
X76378000Y-113208000D03*
%TD*%
%TO.C,TP5*%
X73838000Y-110414000D03*
%TD*%
D24*
%TO.C,F1*%
X68193500Y-87046000D03*
X78353500Y-87046000D03*
X63113500Y-87046000D03*
X73273500Y-87046000D03*
%TD*%
M02*
