%TF.GenerationSoftware,KiCad,Pcbnew,(5.1.10)-1*%
%TF.CreationDate,2021-06-06T16:07:07+07:00*%
%TF.ProjectId,Mother_module,4d6f7468-6572-45f6-9d6f-64756c652e6b,rev?*%
%TF.SameCoordinates,Original*%
%TF.FileFunction,Legend,Bot*%
%TF.FilePolarity,Positive*%
%FSLAX46Y46*%
G04 Gerber Fmt 4.6, Leading zero omitted, Abs format (unit mm)*
G04 Created by KiCad (PCBNEW (5.1.10)-1) date 2021-06-06 16:07:07*
%MOMM*%
%LPD*%
G01*
G04 APERTURE LIST*
%ADD10C,0.150000*%
%ADD11C,0.120000*%
%ADD12C,1.900000*%
%ADD13R,1.900000X1.900000*%
%ADD14C,2.000000*%
%ADD15R,1.700000X2.400000*%
%ADD16O,1.700000X2.400000*%
%ADD17C,1.700000*%
%ADD18R,1.700000X1.700000*%
%ADD19R,2.400000X1.700000*%
%ADD20O,2.400000X1.700000*%
%ADD21O,2.000000X2.400000*%
%ADD22C,1.600000*%
G04 APERTURE END LIST*
D10*
%TO.C,RV1*%
X70282000Y-83982000D02*
X70282000Y-76982000D01*
X74782000Y-83982000D02*
X74782000Y-76982000D01*
X74782000Y-76982000D02*
X70282000Y-76982000D01*
X74782000Y-83982000D02*
X70282000Y-83982000D01*
%TO.C,RV2*%
X78902000Y-100252000D02*
X71902000Y-100252000D01*
X78902000Y-95752000D02*
X71902000Y-95752000D01*
X71902000Y-95752000D02*
X71902000Y-100252000D01*
X78902000Y-95752000D02*
X78902000Y-100252000D01*
D11*
%TO.C,F2*%
X74035500Y-90030500D02*
X79115500Y-90030500D01*
X79115500Y-95237500D02*
X74035500Y-95237500D01*
X63113500Y-90729000D02*
X78353500Y-90729000D01*
X78353500Y-94539000D02*
X63113500Y-94539000D01*
X79115500Y-95237500D02*
X79115500Y-90030500D01*
X62351500Y-90030500D02*
X67431500Y-90030500D01*
X67431500Y-95237500D02*
X62351500Y-95237500D01*
X62351500Y-95237500D02*
X62351500Y-90030500D01*
%TO.C,F1*%
X74035500Y-84442500D02*
X79115500Y-84442500D01*
X79115500Y-89649500D02*
X74035500Y-89649500D01*
X63113500Y-85141000D02*
X78353500Y-85141000D01*
X78353500Y-88951000D02*
X63113500Y-88951000D01*
X79115500Y-89649500D02*
X79115500Y-84442500D01*
X62351500Y-84442500D02*
X67431500Y-84442500D01*
X67431500Y-89649500D02*
X62351500Y-89649500D01*
X62351500Y-89649500D02*
X62351500Y-84442500D01*
%TO.C,RV1*%
D10*
X69972380Y-81878761D02*
X69496190Y-81545428D01*
X69972380Y-81307333D02*
X68972380Y-81307333D01*
X68972380Y-81688285D01*
X69020000Y-81783523D01*
X69067619Y-81831142D01*
X69162857Y-81878761D01*
X69305714Y-81878761D01*
X69400952Y-81831142D01*
X69448571Y-81783523D01*
X69496190Y-81688285D01*
X69496190Y-81307333D01*
X68972380Y-82164476D02*
X69972380Y-82497809D01*
X68972380Y-82831142D01*
X69972380Y-83688285D02*
X69972380Y-83116857D01*
X69972380Y-83402571D02*
X68972380Y-83402571D01*
X69115238Y-83307333D01*
X69210476Y-83212095D01*
X69258095Y-83116857D01*
%TO.C,RV2*%
X71496380Y-96864761D02*
X71020190Y-96531428D01*
X71496380Y-96293333D02*
X70496380Y-96293333D01*
X70496380Y-96674285D01*
X70544000Y-96769523D01*
X70591619Y-96817142D01*
X70686857Y-96864761D01*
X70829714Y-96864761D01*
X70924952Y-96817142D01*
X70972571Y-96769523D01*
X71020190Y-96674285D01*
X71020190Y-96293333D01*
X70496380Y-97150476D02*
X71496380Y-97483809D01*
X70496380Y-97817142D01*
X70591619Y-98102857D02*
X70544000Y-98150476D01*
X70496380Y-98245714D01*
X70496380Y-98483809D01*
X70544000Y-98579047D01*
X70591619Y-98626666D01*
X70686857Y-98674285D01*
X70782095Y-98674285D01*
X70924952Y-98626666D01*
X71496380Y-98055238D01*
X71496380Y-98674285D01*
%TO.C,F2*%
X61401333Y-92308571D02*
X61734666Y-92308571D01*
X61734666Y-92832380D02*
X61734666Y-91832380D01*
X61258476Y-91832380D01*
X60925142Y-91927619D02*
X60877523Y-91880000D01*
X60782285Y-91832380D01*
X60544190Y-91832380D01*
X60448952Y-91880000D01*
X60401333Y-91927619D01*
X60353714Y-92022857D01*
X60353714Y-92118095D01*
X60401333Y-92260952D01*
X60972761Y-92832380D01*
X60353714Y-92832380D01*
%TO.C,F1*%
X61471333Y-87736571D02*
X61804666Y-87736571D01*
X61804666Y-88260380D02*
X61804666Y-87260380D01*
X61328476Y-87260380D01*
X60423714Y-88260380D02*
X60995142Y-88260380D01*
X60709428Y-88260380D02*
X60709428Y-87260380D01*
X60804666Y-87403238D01*
X60899904Y-87498476D01*
X60995142Y-87546095D01*
%TD*%
%LPC*%
D12*
%TO.C,XP2*%
X61646000Y-84887000D03*
X69166000Y-84887000D03*
D13*
X61646000Y-79807000D03*
D12*
X69166000Y-79807000D03*
%TD*%
%TO.C,XP6*%
X137492000Y-81458000D03*
X132512000Y-81458000D03*
D13*
X137492000Y-83998000D03*
D12*
X132512000Y-83998000D03*
%TD*%
D14*
%TO.C,TP10*%
X116510000Y-82220000D03*
%TD*%
%TO.C,TP9*%
X106985000Y-84125000D03*
%TD*%
%TO.C,TP8*%
X116510000Y-78410000D03*
%TD*%
%TO.C,TP7*%
X104445000Y-81585000D03*
%TD*%
D15*
%TO.C,U6*%
X83744000Y-92697500D03*
D16*
X88824000Y-92697500D03*
X111684000Y-92697500D03*
X114224000Y-92697500D03*
%TD*%
D17*
%TO.C,U4*%
X106860000Y-77470000D03*
D18*
X104320000Y-77470000D03*
D19*
X75618000Y-77470000D03*
X80698000Y-77470000D03*
D20*
X85778000Y-77470000D03*
D19*
X91620000Y-77470000D03*
D20*
X96700000Y-77470000D03*
%TD*%
D15*
%TO.C,U5*%
X93904000Y-92697500D03*
D16*
X98984000Y-92697500D03*
X111684000Y-92697500D03*
X114224000Y-92697500D03*
%TD*%
D21*
%TO.C,U7*%
X124336000Y-106553000D03*
X118240000Y-106553000D03*
X111890000Y-106553000D03*
D18*
X73790000Y-106553000D03*
D17*
X76330000Y-106553000D03*
D21*
X92840000Y-106553000D03*
X99190000Y-106553000D03*
X105540000Y-106553000D03*
%TD*%
D18*
%TO.C,U8*%
X73790000Y-118999000D03*
D17*
X76330000Y-118999000D03*
D21*
X90300000Y-118999000D03*
X85220000Y-118999000D03*
X127130000Y-118999000D03*
%TD*%
D14*
%TO.C,TP4*%
X112700000Y-82220000D03*
%TD*%
%TO.C,TP3*%
X112700000Y-78410000D03*
%TD*%
D22*
%TO.C,RV1*%
X71482000Y-77982000D03*
X73582000Y-82982000D03*
%TD*%
%TO.C,RV2*%
X72902000Y-99052000D03*
X77902000Y-96952000D03*
%TD*%
%TO.C,F2*%
X68193500Y-92634000D03*
X78353500Y-92634000D03*
X63113500Y-92634000D03*
X73273500Y-92634000D03*
%TD*%
D12*
%TO.C,XP3*%
X61639500Y-100000000D03*
X69159500Y-100000000D03*
D13*
X61639500Y-94920000D03*
D12*
X69159500Y-94920000D03*
%TD*%
D14*
%TO.C,TP16*%
X115748000Y-134798000D03*
%TD*%
%TO.C,TP15*%
X110160000Y-131496000D03*
%TD*%
%TO.C,TP12*%
X113208000Y-131496000D03*
%TD*%
%TO.C,TP11*%
X115748000Y-137846000D03*
%TD*%
%TO.C,TP14*%
X102032000Y-133020000D03*
%TD*%
%TO.C,TP13*%
X102032000Y-136068000D03*
%TD*%
D12*
%TO.C,XP1*%
X67501500Y-134671000D03*
X62521500Y-134671000D03*
X62521500Y-132131000D03*
X67501500Y-132131000D03*
X67501500Y-129591000D03*
X62521500Y-129591000D03*
X67501500Y-127051000D03*
X62521500Y-127051000D03*
X62521500Y-124511000D03*
X67501500Y-124511000D03*
X62521500Y-121971000D03*
X67501500Y-121971000D03*
X62521500Y-119431000D03*
X67501500Y-119431000D03*
X62521500Y-116891000D03*
X67501500Y-116891000D03*
X62521500Y-114351000D03*
X67501500Y-114351000D03*
X62521500Y-111811000D03*
X67501500Y-111811000D03*
X62521500Y-109271000D03*
X67501500Y-109271000D03*
D13*
X62521500Y-106731000D03*
D12*
X67501500Y-106731000D03*
%TD*%
D14*
%TO.C,TP2*%
X92888000Y-136068000D03*
%TD*%
D12*
%TO.C,XP4*%
X137528500Y-122860000D03*
X132548500Y-122860000D03*
X137528500Y-125400000D03*
X132548500Y-125400000D03*
X137528500Y-127940000D03*
X132548500Y-127940000D03*
X137528500Y-130480000D03*
X132548500Y-130480000D03*
X137528500Y-133020000D03*
X132548500Y-133020000D03*
X137528500Y-135560000D03*
X132548500Y-135560000D03*
D13*
X137528500Y-138100000D03*
D12*
X132548500Y-138100000D03*
%TD*%
D14*
%TO.C,TP1*%
X92888000Y-133020000D03*
%TD*%
D17*
%TO.C,U3*%
X78870000Y-136212000D03*
X76330000Y-136212000D03*
D18*
X73790000Y-136212000D03*
%TD*%
D12*
%TO.C,XP5*%
X138417500Y-90729000D03*
X130897500Y-90729000D03*
X138417500Y-95809000D03*
X130897500Y-95809000D03*
X138417500Y-100889000D03*
X130897500Y-100889000D03*
X138417500Y-105969000D03*
X130897500Y-105969000D03*
X138417500Y-111049000D03*
X130897500Y-111049000D03*
D13*
X138417500Y-116129000D03*
D12*
X130897500Y-116129000D03*
%TD*%
D14*
%TO.C,TP6*%
X76378000Y-113208000D03*
%TD*%
%TO.C,TP5*%
X73838000Y-110414000D03*
%TD*%
D22*
%TO.C,F1*%
X68193500Y-87046000D03*
X78353500Y-87046000D03*
X63113500Y-87046000D03*
X73273500Y-87046000D03*
%TD*%
M02*
