%TF.GenerationSoftware,KiCad,Pcbnew,(5.1.10)-1*%
%TF.CreationDate,2021-06-06T16:07:07+07:00*%
%TF.ProjectId,Mother_module,4d6f7468-6572-45f6-9d6f-64756c652e6b,rev?*%
%TF.SameCoordinates,Original*%
%TF.FileFunction,Soldermask,Top*%
%TF.FilePolarity,Negative*%
%FSLAX46Y46*%
G04 Gerber Fmt 4.6, Leading zero omitted, Abs format (unit mm)*
G04 Created by KiCad (PCBNEW (5.1.10)-1) date 2021-06-06 16:07:07*
%MOMM*%
%LPD*%
G01*
G04 APERTURE LIST*
%ADD10C,1.900000*%
%ADD11R,1.900000X1.900000*%
%ADD12C,2.000000*%
%ADD13R,1.700000X2.400000*%
%ADD14O,1.700000X2.400000*%
%ADD15C,1.700000*%
%ADD16R,1.700000X1.700000*%
%ADD17R,2.400000X1.700000*%
%ADD18O,2.400000X1.700000*%
%ADD19O,2.000000X2.400000*%
%ADD20C,0.100000*%
%ADD21C,1.600000*%
%ADD22R,0.750000X2.100000*%
G04 APERTURE END LIST*
D10*
%TO.C,XP2*%
X61646000Y-84887000D03*
X69166000Y-84887000D03*
D11*
X61646000Y-79807000D03*
D10*
X69166000Y-79807000D03*
%TD*%
%TO.C,XP6*%
X137492000Y-81458000D03*
X132512000Y-81458000D03*
D11*
X137492000Y-83998000D03*
D10*
X132512000Y-83998000D03*
%TD*%
D12*
%TO.C,TP10*%
X116510000Y-82220000D03*
%TD*%
%TO.C,TP9*%
X106985000Y-84125000D03*
%TD*%
%TO.C,TP8*%
X116510000Y-78410000D03*
%TD*%
%TO.C,TP7*%
X104445000Y-81585000D03*
%TD*%
D13*
%TO.C,U6*%
X83744000Y-92697500D03*
D14*
X88824000Y-92697500D03*
X111684000Y-92697500D03*
X114224000Y-92697500D03*
%TD*%
D15*
%TO.C,U4*%
X106860000Y-77470000D03*
D16*
X104320000Y-77470000D03*
D17*
X75618000Y-77470000D03*
X80698000Y-77470000D03*
D18*
X85778000Y-77470000D03*
D17*
X91620000Y-77470000D03*
D18*
X96700000Y-77470000D03*
%TD*%
D13*
%TO.C,U5*%
X93904000Y-92697500D03*
D14*
X98984000Y-92697500D03*
X111684000Y-92697500D03*
X114224000Y-92697500D03*
%TD*%
D19*
%TO.C,U7*%
X124336000Y-106553000D03*
X118240000Y-106553000D03*
X111890000Y-106553000D03*
D16*
X73790000Y-106553000D03*
D15*
X76330000Y-106553000D03*
D19*
X92840000Y-106553000D03*
X99190000Y-106553000D03*
X105540000Y-106553000D03*
%TD*%
D16*
%TO.C,U8*%
X73790000Y-118999000D03*
D15*
X76330000Y-118999000D03*
D19*
X90300000Y-118999000D03*
X85220000Y-118999000D03*
X127130000Y-118999000D03*
%TD*%
D12*
%TO.C,TP4*%
X112700000Y-82220000D03*
%TD*%
%TO.C,TP3*%
X112700000Y-78410000D03*
%TD*%
D20*
%TO.C,JP1*%
G36*
X111049000Y-88205000D02*
G01*
X111799000Y-88705000D01*
X111799000Y-89705000D01*
X110299000Y-89705000D01*
X110299000Y-88705000D01*
X111049000Y-88205000D01*
G37*
G36*
X111799000Y-87255000D02*
G01*
X111799000Y-88405000D01*
X111049000Y-87905000D01*
X110299000Y-88405000D01*
X110299000Y-87255000D01*
X111799000Y-87255000D01*
G37*
%TD*%
D21*
%TO.C,RV1*%
X71482000Y-77982000D03*
X73582000Y-82982000D03*
%TD*%
%TO.C,RV2*%
X72902000Y-99052000D03*
X77902000Y-96952000D03*
%TD*%
%TO.C,F2*%
X68193500Y-92634000D03*
X78353500Y-92634000D03*
X63113500Y-92634000D03*
X73273500Y-92634000D03*
%TD*%
D10*
%TO.C,XP3*%
X61639500Y-100000000D03*
X69159500Y-100000000D03*
D11*
X61639500Y-94920000D03*
D10*
X69159500Y-94920000D03*
%TD*%
D12*
%TO.C,TP16*%
X115748000Y-134798000D03*
%TD*%
%TO.C,TP15*%
X110160000Y-131496000D03*
%TD*%
%TO.C,TP12*%
X113208000Y-131496000D03*
%TD*%
%TO.C,TP11*%
X115748000Y-137846000D03*
%TD*%
%TO.C,TP14*%
X102032000Y-133020000D03*
%TD*%
%TO.C,TP13*%
X102032000Y-136068000D03*
%TD*%
D10*
%TO.C,XP1*%
X67501500Y-134671000D03*
X62521500Y-134671000D03*
X62521500Y-132131000D03*
X67501500Y-132131000D03*
X67501500Y-129591000D03*
X62521500Y-129591000D03*
X67501500Y-127051000D03*
X62521500Y-127051000D03*
X62521500Y-124511000D03*
X67501500Y-124511000D03*
X62521500Y-121971000D03*
X67501500Y-121971000D03*
X62521500Y-119431000D03*
X67501500Y-119431000D03*
X62521500Y-116891000D03*
X67501500Y-116891000D03*
X62521500Y-114351000D03*
X67501500Y-114351000D03*
X62521500Y-111811000D03*
X67501500Y-111811000D03*
X62521500Y-109271000D03*
X67501500Y-109271000D03*
D11*
X62521500Y-106731000D03*
D10*
X67501500Y-106731000D03*
%TD*%
D12*
%TO.C,TP2*%
X92888000Y-136068000D03*
%TD*%
D10*
%TO.C,XP4*%
X137528500Y-122860000D03*
X132548500Y-122860000D03*
X137528500Y-125400000D03*
X132548500Y-125400000D03*
X137528500Y-127940000D03*
X132548500Y-127940000D03*
X137528500Y-130480000D03*
X132548500Y-130480000D03*
X137528500Y-133020000D03*
X132548500Y-133020000D03*
X137528500Y-135560000D03*
X132548500Y-135560000D03*
D11*
X137528500Y-138100000D03*
D10*
X132548500Y-138100000D03*
%TD*%
D12*
%TO.C,TP1*%
X92888000Y-133020000D03*
%TD*%
D22*
%TO.C,U3*%
X110922000Y-137842000D03*
X110922000Y-134242000D03*
X109652000Y-137842000D03*
X109652000Y-134242000D03*
X108382000Y-137842000D03*
X108382000Y-134242000D03*
X107112000Y-137842000D03*
X107112000Y-134242000D03*
X105842000Y-137842000D03*
X105842000Y-134242000D03*
X100000000Y-137842000D03*
X100000000Y-134242000D03*
X98730000Y-137842000D03*
X98730000Y-134242000D03*
X97460000Y-137842000D03*
X97460000Y-134242000D03*
X96190000Y-137842000D03*
X96190000Y-134242000D03*
X94920000Y-137842000D03*
X94920000Y-134242000D03*
X90856000Y-137842000D03*
X90856000Y-134242000D03*
X89586000Y-137842000D03*
X89586000Y-134242000D03*
X88316000Y-137842000D03*
X88316000Y-134242000D03*
X87046000Y-137842000D03*
X87046000Y-134242000D03*
X85776000Y-137842000D03*
X85776000Y-134242000D03*
D15*
X78870000Y-136212000D03*
X76330000Y-136212000D03*
D16*
X73790000Y-136212000D03*
%TD*%
D10*
%TO.C,XP5*%
X138417500Y-90729000D03*
X130897500Y-90729000D03*
X138417500Y-95809000D03*
X130897500Y-95809000D03*
X138417500Y-100889000D03*
X130897500Y-100889000D03*
X138417500Y-105969000D03*
X130897500Y-105969000D03*
X138417500Y-111049000D03*
X130897500Y-111049000D03*
D11*
X138417500Y-116129000D03*
D10*
X130897500Y-116129000D03*
%TD*%
D12*
%TO.C,TP6*%
X76378000Y-113208000D03*
%TD*%
%TO.C,TP5*%
X73838000Y-110414000D03*
%TD*%
D21*
%TO.C,F1*%
X68193500Y-87046000D03*
X78353500Y-87046000D03*
X63113500Y-87046000D03*
X73273500Y-87046000D03*
%TD*%
M02*
