M48
; DRILL file {KiCad (5.1.10)-1} date 06/06/21 16:07:10
; FORMAT={3:3/ absolute / metric / keep zeros}
; #@! TF.CreationDate,2021-06-06T16:07:10+07:00
; #@! TF.GenerationSoftware,Kicad,Pcbnew,(5.1.10)-1
; #@! TF.FileFunction,Plated,1,2,PTH
FMAT,2
METRIC
T1C0.400
T2C0.500
T3C0.600
T4C0.700
T5C1.000
T6C1.050
T7C1.200
T8C1.300
%
G90
G05
T1
X085776Y-136068
X087046Y-132627
X088316Y-132576
X089586Y-132576
X097460Y-132576
X098730Y-132576
T2
X078886Y-130511
X087046Y-139370
X088316Y-139370
X089586Y-139370
X090856Y-139370
T3
X071482Y-077982
X072902Y-099052
X073582Y-082982
X077902Y-096952
T4
X094920Y-136068
X096190Y-132576
X105842Y-136068
T5
X073790Y-106553
X073790Y-118999
X073790Y-136212
X073838Y-110414
X075618Y-077470
X076330Y-106553
X076330Y-118999
X076330Y-136212
X076378Y-113208
X078870Y-136212
X080698Y-077470
X083744Y-092698
X085778Y-077470
X088824Y-092698
X091620Y-077470
X092888Y-133020
X092888Y-136068
X093904Y-092698
X096700Y-077470
X098984Y-092698
X102032Y-133020
X102032Y-136068
X104320Y-077470
X104445Y-081585
X106860Y-077470
X106985Y-084125
X110160Y-131496
X111684Y-092698
X111684Y-092698
X112700Y-078410
X112700Y-082220
X113208Y-131496
X114224Y-092698
X114224Y-092698
X115748Y-134798
X115748Y-137846
X116510Y-078410
X116510Y-082220
T6
X063114Y-087046
X063114Y-092634
X068194Y-087046
X068194Y-092634
X073274Y-087046
X073274Y-092634
X078354Y-087046
X078354Y-092634
T7
X085220Y-118999
X090300Y-118999
X092840Y-106553
X099190Y-106553
X102286Y-102032
X104445Y-093015
X105540Y-106553
X111890Y-106553
X118240Y-106553
X124336Y-106553
X127130Y-118999
T8
X061640Y-094920
X061640Y-100000
X061646Y-079807
X061646Y-084887
X062522Y-106731
X062522Y-109271
X062522Y-111811
X062522Y-114351
X062522Y-116891
X062522Y-119431
X062522Y-121971
X062522Y-124511
X062522Y-127051
X062522Y-129591
X062522Y-132131
X062522Y-134671
X067501Y-106731
X067501Y-109271
X067501Y-111811
X067501Y-114351
X067501Y-116891
X067501Y-119431
X067501Y-121971
X067501Y-124511
X067501Y-127051
X067501Y-129591
X067501Y-132131
X067501Y-134671
X069159Y-094920
X069159Y-100000
X069166Y-079807
X069166Y-084887
X130898Y-090729
X130898Y-095809
X130898Y-100889
X130898Y-105969
X130898Y-111049
X130898Y-116129
X132512Y-081458
X132512Y-083998
X132549Y-122860
X132549Y-125400
X132549Y-127940
X132549Y-130480
X132549Y-133020
X132549Y-135560
X132549Y-138100
X137492Y-081458
X137492Y-083998
X137529Y-122860
X137529Y-125400
X137529Y-127940
X137529Y-130480
X137529Y-133020
X137529Y-135560
X137529Y-138100
X138418Y-090729
X138418Y-095809
X138418Y-100889
X138418Y-105969
X138418Y-111049
X138418Y-116129
T0
M30
